<?xml version="1.0" encoding="UTF-8"?>
<svg width="24px" height="24px" viewBox="0 0 24 24" version="1.1" xmlns="http://www.w3.org/2000/svg" xmlns:xlink="http://www.w3.org/1999/xlink">
    <!-- Generator: Sketch 58 (84663) - https://sketch.com -->
    <title>amplify</title>
    <desc>Created with Sketch.</desc>
    <g id="ðŸ¥‘-é£Žæ ¼ç¡®å®š" stroke="none" stroke-width="1" fill="none" fill-rule="evenodd">
        <g id="æœç´¢é¡µé¢" transform="translate(-342.000000, -98.000000)">
            <g id="è¾“å…¥æ¡†" transform="translate(32.000000, 86.000000)">
                <g id="icon" transform="translate(310.000000, 12.000000)">
                    <rect id="çŸ©å½¢" x="0" y="0" width="24" height="24"></rect>
                    <path d="M15.1417089,18.4602099 L11.0109004,18.4602099 L15.5506172,14.3979104 C15.7678126,14.2034229 15.8525575,13.9200223 15.7729294,13.6544629 C15.6933013,13.3889035 15.4613975,13.1815301 15.164574,13.1104583 C14.8677504,13.0393864 14.5511017,13.1154136 14.3339063,13.3099011 L9.72075296,17.4349273 L9.72075296,13.7698968 C9.72075296,13.3446953 9.33554929,13.0000015 8.86037648,13.0000015 C8.38520367,13.0000015 8,13.3446953 8,13.7698968 L8,19.230852 C8,19.6557506 8.38470761,20.0000015 8.86037647,20.0000015 L15.1383709,20.0000015 C15.6135437,20.0006192 15.9993077,19.6564268 16,19.2312254 C16.0006904,18.8060239 15.6160472,18.4608285 15.1408744,18.4602099 L15.1417089,18.4602099 Z M23.1417208,4.00149656 L16.8607802,4.00149656 C16.3853844,4.00149656 16,4.3462272 16,4.771474 C16,5.19672079 16.3853844,5.54145144 16.8607802,5.54145144 L20.9918575,5.54145144 L16.4491753,9.60269031 C16.2317289,9.79719857 16.1468064,10.0807005 16.2263973,10.3464038 C16.3059882,10.612107 16.5380008,10.8196448 16.8350382,10.8908398 C17.1320756,10.9620348 17.4490107,10.8860706 17.6664572,10.6915624 L22.2784359,6.56534965 L22.2784359,10.230024 C22.2784359,10.6552708 22.6638203,11.0000015 23.1392161,11.0000015 C23.6146119,11.0000015 24,10.6552708 24,10.230024 L24,4.76923353 C24.0006632,4.56516809 23.9103909,4.36927787 23.7491558,4.22491113 C23.5879207,4.0805444 23.3690171,3.99960464 23.1408859,4.00000145 L23.1417208,4.00149656 Z" id="å½¢çŠ¶" fill="#D8D8D8" fill-rule="nonzero"></path>
                </g>
            </g>
        </g>
    </g>
</svg>