<?xml version="1.0" encoding="UTF-8"?>
<svg width="24px" height="24px" viewBox="0 0 24 24" version="1.1" xmlns="http://www.w3.org/2000/svg" xmlns:xlink="http://www.w3.org/1999/xlink">
    <!-- Generator: Sketch 58 (84663) - https://sketch.com -->
    <title>arrow-right</title>
    <desc>Created with Sketch.</desc>
    <g id="ðŸ¥‘-é£Žæ ¼ç¡®å®š" stroke="none" stroke-width="1" fill="none" fill-rule="evenodd">
        <g id="å‘é€é¡µé¢-æœªè¾“å…¥çŠ¶æ€" transform="translate(-342.000000, -114.000000)">
            <g id="è¾“å…¥æ¡†1" transform="translate(32.000000, 86.000000)">
                <g id="icon/è¿”å›ž" transform="translate(322.000000, 40.000000) scale(-1, 1) translate(-322.000000, -40.000000) translate(310.000000, 28.000000)">
                    <rect id="çŸ©å½¢" x="0" y="0" width="24" height="24"></rect>
                    <path d="M12.6744961,13.3406886 C12.8829056,13.1133377 13,12.8048963 13,12.4832705 C13,12.1616447 12.8829056,11.8532033 12.6744961,11.6258524 L6.91628499,5.3402746 C6.48055592,4.88089058 5.78794273,4.88746042 5.3595929,5.35504073 C4.93124307,5.82262104 4.92522445,6.57866731 5.34606567,7.05430269 L10.3173164,12.4816542 L5.33866246,17.9162789 C5.05012025,18.2207766 4.93454297,18.6715287 5.03635252,19.0952895 C5.13816207,19.5190503 5.44151464,19.8498734 5.8298173,19.9606075 C6.21811995,20.0713417 6.63094429,19.9447542 6.90962211,19.6294989 L12.6263753,13.389176 L12.6744961,13.3406886 Z" id="å½¢çŠ¶ç»“åˆ" fill="#D8D8D8" fill-rule="nonzero" transform="translate(9.000000, 12.500000) scale(-1, 1) translate(-9.000000, -12.500000) "></path>
                </g>
            </g>
        </g>
    </g>
</svg>