<?xml version="1.0" encoding="UTF-8"?>
<svg width="24px" height="24px" viewBox="0 0 24 24" version="1.1" xmlns="http://www.w3.org/2000/svg" xmlns:xlink="http://www.w3.org/1999/xlink">
    <!-- Generator: Sketch 58 (84663) - https://sketch.com -->
    <title>arrow-right-theme</title>
    <desc>Created with Sketch.</desc>
    <g id="ðŸ¥‘-é£Žæ ¼ç¡®å®š" stroke="none" stroke-width="1" fill="none" fill-rule="evenodd">
        <g id="Mint-è¿›ç¨‹/ç»“æžœé¡µé¢" transform="translate(-358.000000, -95.000000)">
            <g id="æ¨ªå¹…è·³è½¬" transform="translate(0.000000, 86.000000)">
                <g id="icon/è¿”å›ž" transform="translate(370.000000, 21.000000) scale(-1, 1) translate(-370.000000, -21.000000) translate(358.000000, 9.000000)">
                    <rect id="çŸ©å½¢" x="0" y="0" width="24" height="24"></rect>
                    <g id="ç®­å¤´-è·³è½¬" transform="translate(11.000000, 12.000000) scale(-1, 1) translate(-11.000000, -12.000000) translate(0.000000, 5.000000)" fill="#74E6D8" fill-rule="nonzero">
                        <path d="M1.02357895,5.72 L18.424421,5.72 C19.106807,5.72 19.448,6.10133333 19.448,6.864 L19.448,6.864 C19.448,7.62666667 19.106807,8.008 18.424421,8.008 L1.02357895,8.008 C0.341192985,8.008 0,7.62666667 0,6.864 L0,6.864 C0,6.10133333 0.341192985,5.72 1.02357895,5.72 L1.02357895,5.72 Z" id="è·¯å¾„"></path>
                        <path d="M14.976,0.363999996 L20.8,6.188 C21.2853333,6.67333333 21.2853333,7.15866666 20.8,7.644 L20.8,7.644 C20.3146667,8.12933333 19.8293333,8.12933333 19.344,7.644 L13.52,1.82 C13.0346667,1.33466667 13.0346667,0.849333339 13.52,0.363999996 L13.52,0.363999996 C14.0053333,-0.121333332 14.4906667,-0.121333332 14.976,0.363999996 Z" id="è·¯å¾„"></path>
                        <path d="M14.976,13.364 L20.8,7.54000001 C21.2853333,7.05466668 21.2853333,6.56933334 20.8,6.084 L20.8,6.084 C20.3146667,5.59866667 19.8293333,5.59866667 19.344,6.084 L13.52,11.908 C13.0346667,12.3933333 13.0346667,12.8786667 13.52,13.364 L13.52,13.364 C14.0053333,13.8493333 14.4906667,13.8493333 14.976,13.364 Z" id="è·¯å¾„"></path>
                    </g>
                </g>
            </g>
        </g>
    </g>
</svg>