<?xml version="1.0" encoding="UTF-8"?>
<svg width="24px" height="24px" viewBox="0 0 24 24" version="1.1" xmlns="http://www.w3.org/2000/svg" xmlns:xlink="http://www.w3.org/1999/xlink">
    <!-- Generator: Sketch 58 (84663) - https://sketch.com -->
    <title>check-select</title>
    <desc>Created with Sketch.</desc>
    <g id="ðŸ¥‘-é£Žæ ¼ç¡®å®š" stroke="none" stroke-width="1" fill="none" fill-rule="evenodd">
        <g id="ç§é’¥é’±åŒ…å¯¼å…¥æ­¥éª¤äºŒ" transform="translate(-32.000000, -301.000000)">
            <g id="å‹¾é€‰" transform="translate(32.000000, 301.000000)">
                <g id="æœªå‹¾é€‰icon">
                    <rect id="çŸ©å½¢" x="0" y="0" width="24" height="24"></rect>
                    <path d="M14.2222638,4 L1.777785,4 C0.796060717,4 0,4.79516547 0,5.77778139 L0,18.2222024 C0,19.203096 0.796060717,20 1.777785,20 L14.2222475,20 C15.203923,20 16,19.203096 16,18.2222024 L16,5.77778139 C16,4.79516547 15.2039393,4 14.2222638,4 Z M13.9045381,9.19093252 L6.96957296,16.1249737 C6.78256084,16.3128791 6.53915261,16.4089196 6.29442833,16.4135827 C6.05316483,16.4333075 5.80510973,16.3511263 5.62061602,16.1666492 L2.00002234,12.5469078 C1.66752747,12.2135687 1.66752747,11.6735581 2.00002234,11.340219 C2.33336212,11.0068961 2.87410498,11.0068961 3.20744475,11.340219 L6.09422299,14.2276738 L12.5173339,7.80205759 C12.9010255,7.42015395 13.5216426,7.42015395 13.9045381,7.80205759 C14.2882785,8.18755198 14.2882785,8.80729036 13.9045381,9.19093252 Z" id="å½¢çŠ¶" fill="#74E6D8" fill-rule="nonzero"></path>
                </g>
            </g>
        </g>
    </g>
</svg>