<?xml version="1.0" encoding="UTF-8"?>
<svg width="24px" height="24px" viewBox="0 0 24 24" version="1.1" xmlns="http://www.w3.org/2000/svg" xmlns:xlink="http://www.w3.org/1999/xlink">
    <!-- Generator: Sketch 58 (84663) - https://sketch.com -->
    <title>copy</title>
    <desc>Created with Sketch.</desc>
    <g id="ðŸ¥‘-é£Žæ ¼ç¡®å®š" stroke="none" stroke-width="1" fill="none" fill-rule="evenodd">
        <g id="åˆ›å»ºåŠ©è®°è¯" transform="translate(-130.000000, -322.000000)">
            <g id="æ“ä½œæ " transform="translate(32.000000, 310.000000)">
                <g id="å¤åˆ¶">
                    <g transform="translate(49.000000, 11.000000)" id="å¤åˆ¶icon">
                        <g transform="translate(49.000000, 1.000000)">
                            <rect id="çŸ©å½¢" x="0" y="0" width="24" height="24"></rect>
                            <g id="icon" transform="translate(0.000000, 6.000000)" fill="#D8D8D8" fill-rule="nonzero">
                                <path d="M9.13671635,2.86153846 L9.13846154,2.86328365 L9.13846154,10.9828702 L9.13671635,10.9846154 L1.01712981,10.9846154 L1.01538462,10.9828702 L1.01538462,2.86328365 L1.01712981,2.86153846 L9.13671635,2.86153846 M9.13846154,1.84615385 L1.01538462,1.84615385 C0.455290307,1.84780927 0.00165541907,2.30144415 0,2.86153846 L0,10.9846154 C0.00165541907,11.5447097 0.455290307,11.9983446 1.01538462,12 L9.13846154,12 C9.69855585,11.9983446 10.1521907,11.5447097 10.1538462,10.9846154 L10.1538462,2.86153846 C10.1521907,2.30144415 9.69855585,1.84780927 9.13846154,1.84615385 L9.13846154,1.84615385 Z" id="å½¢çŠ¶"></path>
                                <path d="M8.30769231,4.61538462 L1.84615385,4.61538462 L1.84615385,5.76923077 L8.30769231,5.76923077 L8.30769231,4.61538462 Z M8.30769231,8.07692308 L1.84615385,8.07692308 L1.84615385,9.23076923 L8.30769231,9.23076923 L8.30769231,8.07692308 Z" id="å½¢çŠ¶"></path>
                                <path d="M10.9846154,0 L2.86153846,0 C2.30144415,0.00165541907 1.84780927,0.455290307 1.84615385,1.01538462 L1.84615385,1.52307692 L2.86153846,1.52307692 L2.86153846,1.01712981 L2.86328365,1.01538462 L10.9828702,1.01538462 L10.9846154,1.01712981 L10.9846154,9.13671635 L10.9828702,9.13846154 L10.4769231,9.13846154 L10.4769231,10.1538462 L10.9846154,10.1538462 C11.5447097,10.1521907 11.9983446,9.69855585 12,9.13846154 L12,1.01538462 C11.9983446,0.455290307 11.5447097,0.00165541907 10.9846154,0 L10.9846154,0 Z" id="è·¯å¾„"></path>
                            </g>
                        </g>
                    </g>
                </g>
            </g>
        </g>
    </g>
</svg>