<?xml version="1.0" encoding="UTF-8"?>
<svg width="24px" height="24px" viewBox="0 0 24 24" version="1.1" xmlns="http://www.w3.org/2000/svg" xmlns:xlink="http://www.w3.org/1999/xlink">
    <!-- Generator: Sketch 58 (84663) - https://sketch.com -->
    <title>Wallet</title>
    <desc>Created with Sketch.</desc>
    <g id="ðŸ¥‘-é£Žæ ¼ç¡®å®š" stroke="none" stroke-width="1" fill="none" fill-rule="evenodd">
        <g id="åº•éƒ¨èœå•-æœªé€‰ä¸­" transform="translate(-41.000000, -17.000000)">
            <g id="åº•éƒ¨èœå•">
                <g id="é¦–é¡µ" transform="translate(41.000000, 17.000000)">
                    <rect id="çŸ©å½¢" x="0" y="0" width="24" height="24"></rect>
                    <path d="M22.9580067,6.16666667 L15.2727044,6.16666667 C11.6345827,6.16666667 8.68530236,9.00219658 8.68530236,12.5 C8.68530236,15.9978034 11.6345827,18.8333333 15.2727044,18.8333333 L22.9580067,18.8333333 L22.9580067,20.9444444 C22.9580067,21.5274117 22.46646,22 21.8601064,22 L2.09790034,22 C1.49154673,22 1,21.5274117 1,20.9444444 L1,4.05555556 C1,3.47258832 1.49154673,3 2.09790034,3 L21.8601064,3 C22.46646,3 22.9580067,3.47258832 22.9580067,4.05555556 L22.9580067,6.16666667 Z M15.3336989,8.42857143 L23,8.42857143 L23,16.5714286 L15.3336989,16.5714286 C12.975657,16.5714286 11.0640864,14.7485879 11.0640864,12.5 C11.0640864,10.2514121 12.975657,8.42857143 15.3336989,8.42857143 Z M14.7237542,12.952381 C14.7237542,13.4520672 15.1288299,13.8571429 15.6285161,13.8571429 L17.4786601,13.8571429 C17.9783463,13.8571429 18.383422,13.4520672 18.383422,12.952381 C18.383422,12.4526948 17.9783463,12.047619 17.4786601,12.047619 L15.6285161,12.047619 C15.1288299,12.047619 14.7237542,12.4526948 14.7237542,12.952381 Z" id="å½¢çŠ¶" fill="#D8D8D8" fill-rule="nonzero"></path>
                </g>
            </g>
        </g>
    </g>
</svg>