<?xml version="1.0" encoding="UTF-8"?>
<svg width="24px" height="24px" viewBox="0 0 24 24" version="1.1" xmlns="http://www.w3.org/2000/svg" xmlns:xlink="http://www.w3.org/1999/xlink">
    <!-- Generator: Sketch 58 (84663) - https://sketch.com -->
    <title>Setting</title>
    <desc>Created with Sketch.</desc>
    <g id="ðŸ¥‘-é£Žæ ¼ç¡®å®š" stroke="none" stroke-width="1" fill="none" fill-rule="evenodd">
        <g id="åº•éƒ¨èœå•-æœªé€‰ä¸­" transform="translate(-349.000000, -17.000000)">
            <g id="åº•éƒ¨èœå•">
                <g id="è®¾ç½®" transform="translate(349.000000, 17.000000)">
                    <rect id="çŸ©å½¢" x="0" y="0" width="24" height="24"></rect>
                    <path d="M23.1654087,9.58390721 L21.6004372,9.36506348 C21.2529697,9.31582363 20.9711654,9.08056662 20.8343672,8.76050765 C20.5252032,8.03011668 20.1312244,7.34623001 19.6606386,6.72252536 C19.4499693,6.44349959 19.3870421,6.07967188 19.5183684,5.75687737 L20.1120727,4.29335988 C20.2953823,3.84473022 20.1175446,3.3277119 19.6962061,3.08698379 L16.3118184,1.13106789 C15.8904799,0.887604234 15.3569669,0.991555008 15.0587468,1.37453155 L14.0902155,2.6137342 C13.8740743,2.89275997 13.5238709,3.02133066 13.1736675,2.97756192 C12.7906325,2.92832208 12.3993896,2.90096661 12.0026748,2.90096661 C11.60596,2.90096661 11.2147172,2.92832208 10.8316822,2.97756192 C10.4814788,3.02133066 10.1312753,2.89275997 9.91513417,2.6137342 L8.94660285,1.37453155 C8.64838276,0.991555008 8.11486974,0.887604234 7.69353126,1.13106789 L4.30914358,3.08424824 C3.88780509,3.3277119 3.71270339,3.84199468 3.89327702,4.29062434 L4.48698125,5.75414182 C4.61830753,6.07967188 4.55538035,6.44076405 4.34471111,6.71978981 C3.87412527,7.34349446 3.47741047,8.02738114 3.17098248,8.75777211 C3.03418427,9.08056662 2.75237996,9.31582363 2.40491251,9.36232793 L0.839941002,9.58117166 C0.358411307,9.64956033 0,10.0598923 0,10.5468197 L0,14.4559159 C0,14.9401077 0.358411307,15.3504397 0.837205038,15.4188283 L2.40217655,15.6376721 C2.749644,15.6869119 3.03144831,15.9221689 3.16824652,16.2422279 C3.47741047,16.9726189 3.87138931,17.6565055 4.34197515,18.2802102 C4.55264439,18.559236 4.61557156,18.9230637 4.48424528,19.2458582 L3.89054106,20.7093757 C3.70723146,21.1580053 3.88506913,21.6750237 4.30640761,21.9157518 L7.6907953,23.8689321 C8.11213378,24.1123958 8.64564679,24.008445 8.94386689,23.6254685 L9.91239821,22.3862658 C10.1285394,22.10724 10.4787428,21.9786693 10.8289462,22.0224381 C11.2119812,22.0716779 11.6032241,22.0990334 11.9999389,22.0990334 C12.3966537,22.0990334 12.7878966,22.0716779 13.1709315,22.0224381 C13.521135,21.9786693 13.8713384,22.10724 14.0874795,22.3862658 L15.0560109,23.6254685 C15.354231,24.008445 15.887744,24.1123958 16.3090824,23.8689321 L19.6934701,21.9157518 C20.1148086,21.6722881 20.2899103,21.1580053 20.1093367,20.7093757 L19.5156325,19.2458582 C19.3843062,18.9230637 19.4472334,18.559236 19.6579026,18.2802102 C20.1284884,17.6565055 20.5252032,16.9726189 20.8316312,16.2422279 C20.9684294,15.9194334 21.2502338,15.6841764 21.5977012,15.6376721 L23.1626727,15.4188283 C23.6442024,15.3504397 23.9999396,14.9401077 23.9999396,14.4559159 L23.9999396,10.5468197 C24.0053497,10.0598923 23.6469384,9.64956033 23.1654087,9.58390721 Z M12.2399903,16.3333333 C10.1195637,16.3333333 8.4,14.6167507 8.4,12.5 C8.4,10.3832493 10.1195637,8.66666667 12.2399903,8.66666667 C14.360417,8.66666667 16.0799807,10.3832493 16.0799807,12.5 C16.0799807,14.6167507 14.360417,16.3333333 12.2399903,16.3333333 Z" id="å½¢çŠ¶" fill="#D8D8D8" fill-rule="nonzero"></path>
                </g>
            </g>
        </g>
    </g>
</svg>