<?xml version="1.0" encoding="UTF-8"?>
<svg width="24px" height="24px" viewBox="0 0 24 24" version="1.1" xmlns="http://www.w3.org/2000/svg" xmlns:xlink="http://www.w3.org/1999/xlink">
    <!-- Generator: Sketch 58 (84663) - https://sketch.com -->
    <title>çŸ©å½¢</title>
    <desc>Created with Sketch.</desc>
    <g id="ðŸ¥‘-é£Žæ ¼ç¡®å®š" stroke="none" stroke-width="1" fill="none" fill-rule="evenodd">
        <g id="è¿žæŽ¥ç«™ç‚¹" transform="translate(-358.000000, -40.000000)">
            <g id="Tab" transform="translate(0.000000, 30.000000)">
                <g id="åŽ†å²è®°å½•" transform="translate(358.000000, 10.000000)">
                    <rect id="çŸ©å½¢" x="0" y="0" width="24" height="24"></rect>
                    <g id="åŽ†å²2" transform="translate(3.000000, 2.500000)" fill="#D8D8D8" fill-rule="nonzero">
                        <path d="M13.2202558,15.6356022 L14.1514882,17.0324418 C12.67614,17.965539 10.9657675,18.4596325 9.2201111,18.4570313 C4.1251442,18.4570313 0,14.3226483 0,9.22851049 C0,4.13437269 4.1251442,0 9.21928197,0 C14.3226483,0 18.457003,4.13437269 18.457003,9.22851049 C18.457003,9.36946157 18.4536324,9.50871834 18.4477744,9.64797513 L16.7673564,9.64797513 C16.7757197,9.50871834 16.7790903,9.36944355 16.7790903,9.22851049 C16.7790903,5.05974717 13.3947504,1.67789461 9.21928197,1.67789461 C5.0538712,1.67789461 1.67789461,5.05891805 1.67789461,9.22851049 C1.67789461,13.3981029 5.0538712,16.7790903 9.21928197,16.7790903 C10.6882734,16.7790903 12.0599869,16.3596077 13.2210669,15.6356022 L13.2202558,15.6356022 Z" id="è·¯å¾„"></path>
                        <path d="M9.64797513,5.03373792 L8.38954516,5.03373792 L8.38954516,10.0674578 L12.7940681,12.7101643 L13.4232831,11.6782655 L9.64797513,9.43824282 L9.64797513,5.03373792 Z M15.1011957,9.22851049 L20.1348976,9.22851049 L17.6180376,12.5843358 L15.1011957,9.22851049 Z" id="å½¢çŠ¶"></path>
                    </g>
                </g>
            </g>
        </g>
    </g>
</svg>