<?xml version="1.0" encoding="UTF-8"?>
<svg width="24px" height="24px" viewBox="0 0 24 24" version="1.1" xmlns="http://www.w3.org/2000/svg" xmlns:xlink="http://www.w3.org/1999/xlink">
    <!-- Generator: Sketch 58 (84663) - https://sketch.com -->
    <title>eye-open</title>
    <desc>Created with Sketch.</desc>
    <g id="ðŸ¥‘-é£Žæ ¼ç¡®å®š" stroke="none" stroke-width="1" fill="none" fill-rule="evenodd">
        <g id="è¾“å…¥å¯†ç " transform="translate(-343.000000, -358.000000)">
            <g transform="translate(32.000000, 346.000000)" id="è®¾ç½®å¯†ç ">
                <g>
                    <g id="æ˜¾ç¤ºå¯†ç " transform="translate(311.000000, 12.000000)">
                        <rect id="çŸ©å½¢" x="0" y="0" width="24" height="24"></rect>
                        <path d="M10.135041,12 C10.135041,13.2076789 11.0819404,14.1866961 12.25,14.1866961 C13.4180596,14.1866961 14.364959,13.2076789 14.364959,12 C14.364959,10.7923211 13.4180596,9.81330386 12.25,9.81330386 C11.0819404,9.81330386 10.135041,10.7923211 10.135041,12 L10.135041,12 Z M12.25,6 C5.85031005,6 2,12 2,12 C2,12 5.85031005,18 12.25,18 C18.6316134,18 22.5,12 22.5,12 C22.5,12 18.6316134,6 12.25,6 Z M12.25,16.2051849 C10.0085049,16.2051849 8.18277108,14.318127 8.18277108,12 C8.18277108,9.68247588 10.0079218,7.79481511 12.25,7.79481511 C14.4914951,7.79481511 16.3172289,9.68187299 16.3172289,12 C16.3172289,14.3175241 14.4920782,16.2051849 12.25,16.2051849 Z" id="å½¢çŠ¶" fill="#D8D8D8" fill-rule="nonzero"></path>
                    </g>
                </g>
            </g>
        </g>
    </g>
</svg>