<?xml version="1.0" encoding="UTF-8"?>
<svg width="24px" height="24px" viewBox="0 0 24 24" version="1.1" xmlns="http://www.w3.org/2000/svg" xmlns:xlink="http://www.w3.org/1999/xlink">
    <!-- Generator: Sketch 58 (84663) - https://sketch.com -->
    <title>key</title>
    <desc>Created with Sketch.</desc>
    <g id="ðŸ¥‘-é£Žæ ¼ç¡®å®š" stroke="none" stroke-width="1" fill="none" fill-rule="evenodd">
        <g id="é’±åŒ…åˆ—è¡¨é¡µ-ç‚¹å‡»åŠ å·" transform="translate(-54.000000, -296.000000)">
            <g id="è¾“å…¥æ¡†3" transform="translate(32.000000, 268.000000)">
                <g id="é’¥åŒ™-" transform="translate(22.000000, 28.000000)">
                    <rect id="çŸ©å½¢" x="0" y="0" width="24" height="24"></rect>
                    <path d="M8.91681276,0 C3.99219306,0 0,4.09894859 0,9.15525791 C0,14.2115672 3.99219306,18.3105158 8.91681276,18.3105158 C10.0552674,18.3122218 11.1834193,18.0891226 12.2398116,17.6533717 L17.8405608,23.403891 C18.2279468,23.8016361 18.7352144,24 19.2424819,24 C19.7487588,24 20.2560263,23.8016361 20.6434123,23.403891 L22.4198395,21.5799602 C23.1933868,20.7854875 23.1933868,19.4976473 22.4198395,18.7031747 L21.9868788,18.2596533 L22.2771705,17.9615988 C22.6489501,17.580032 22.8578264,17.0624236 22.8578264,16.5226974 C22.8578264,15.9829712 22.6489501,15.4653628 22.2771705,15.083796 L20.8762402,13.6454033 C20.5051688,13.2629934 20.0010598,13.0480384 19.4753098,13.0480384 C18.9495598,13.0480384 18.4454508,13.2629934 18.0743795,13.6454033 L17.7840877,13.9434578 L16.9647316,13.1021913 C17.5384489,11.8699085 17.8353823,10.521094 17.8336255,9.15525791 C17.8336255,4.09894859 13.8414325,0 8.91681276,0 M8.91681276,2.03450175 C11.2968791,2.03803556 13.5093244,3.29301367 14.7791831,5.35984794 C16.0490418,7.42668222 16.1993303,10.0173123 15.1774061,12.2243038 L14.5720536,13.5233332 L15.5638013,14.5405841 L16.3821665,15.3818506 L17.7840877,16.8202433 L19.185018,15.3818506 L19.4753098,15.083796 L20.8762402,16.523206 L20.5859484,16.8202433 L19.185018,18.2596533 L20.5859484,19.698046 L21.0179184,20.1415674 L19.2424819,21.9654982 L13.640742,16.214979 L12.715375,15.2648667 L11.500707,15.7653541 C9.36328549,16.6421298 6.94160005,16.374358 5.03500614,15.0504255 C3.12841223,13.726493 1.98474694,11.518497 1.98151394,9.15525791 C1.98151394,5.22866953 5.09249083,2.03450175 8.91681276,2.03450175" id="å½¢çŠ¶" fill="#FFFFFF" fill-rule="nonzero"></path>
                    <path d="M9.00000011,11 C10.1045696,11 11.0000001,10.1045695 11.0000001,9.00000001 C11.0000001,7.89543051 10.1045696,7.00000001 9.00000011,7.00000001 C7.89543058,7.00000001 7.00000011,7.89543052 7.00000011,9.00000001 C7.00000011,10.1045695 7.89543058,11 9.00000011,11 L9.00000011,11 Z M9,13 C7.57093769,13 6.25042959,12.2376043 5.53589839,11 C4.8213672,9.7623957 4.8213672,8.2376043 5.53589839,7 C6.25042959,5.76239567 7.57093769,5 9,5 C11.209139,5 13,6.79086102 13,9 C13,11.209139 11.209139,13 9,13 Z" id="å½¢çŠ¶" fill="#FFFFFF" fill-rule="nonzero"></path>
                </g>
            </g>
        </g>
    </g>
</svg>