<?xml version="1.0" standalone="no"?><!DOCTYPE svg PUBLIC "-//W3C//DTD SVG 1.1//EN" "http://www.w3.org/Graphics/SVG/1.1/DTD/svg11.dtd"><svg t="1762223946507" class="icon" viewBox="0 0 1024 1024" version="1.1" xmlns="http://www.w3.org/2000/svg" p-id="4666" xmlns:xlink="http://www.w3.org/1999/xlink" width="64" height="64"><path d="M42.666667 85.290667h256V235.946667c8.874667 6.570667 22.357333 15.488 40.405333 24.533333 37.461333 18.688 94.976 38.144 172.928 38.144s135.466667-19.456 172.928-38.144c18.048-9.045333 31.530667-17.92 40.405333-24.533333V85.333333h256v853.333334h-256V725.333333H298.666667v213.333334H42.666667V85.333333z m256 554.666666h170.666666v-257.706666c-71.936-5.717333-128.170667-25.344-168.405333-45.482667A381.013333 381.013333 0 0 1 298.666667 335.658667v304.298666z m256-257.706666V640h170.666666V335.658667a502.613333 502.613333 0 0 1-2.261333 1.109333c-40.234667 20.138667-96.426667 39.765333-168.405333 45.525333z" p-id="4667" fill="#171717"></path></svg>