<?xml version="1.0" encoding="UTF-8"?>
<svg width="44px" height="44px" viewBox="0 0 44 44" version="1.1" xmlns="http://www.w3.org/2000/svg" xmlns:xlink="http://www.w3.org/1999/xlink">
    <!-- Generator: Sketch 58 (84663) - https://sketch.com -->
    <title>conin-default</title>
    <desc>Created with Sketch.</desc>
    <defs>
        <path d="M0,22 C0,9.8497355 9.84706399,0 22,0 L22,0 C34.1502645,0 44,9.84706399 44,22 L44,22 C44,34.1502645 34.152936,44 22,44 L22,44 C9.8497355,44 0,34.152936 0,22 L0,22 Z" id="path-1"></path>
        <path d="M21.9290709,3.9879211e-13 C21.3259008,3.56752971 19.0876234,6.57987719 16.0101706,8.24043234 L15.9072819,8.2818799 C15.2607302,8.60598495 14.5327899,8.86413063 13.6854786,9.05006995 C13.4857335,9.09390326 13.2749693,9.13334309 13.0551241,9.16851908 C12.1984229,9.34413091 11.3128019,9.4186214 10.3982815,9.38875848 L10.0411516,9.39495652 C8.13863104,9.29049019 6.50511134,8.88443988 5.14059248,8.17680558 C5.07240303,8.14858457 5.00307256,8.11953835 4.9336193,8.08998069 C4.90713856,8.07871112 4.88074551,8.06726606 4.85445198,8.05558347 L4.81622688,8.04225444 C4.6420038,7.98264767 4.48721581,7.91628124 4.3535047,7.85068422 C2.525942,6.70079486 1.04280026,5.05501062 0.0939852663,3.10168598 C0.085418088,3.08182166 0.0831743032,3.07703385 0.0685897022,3.04382478 C-0.196584863,2.44402424 0.346411054,2.19454877 1.02321814,1.90921567 C1.64704859,1.64630814 2.40163466,1.32831689 3.37927066,1.34328707 L3.62837994,1.35419088 C3.71300093,1.36028742 3.7992243,1.36892076 3.88710344,1.38031546 C5.22868276,1.55430651 6.26837103,2.3271813 7.47236555,3.22209431 C9.19110469,4.49972652 11.126879,5.93881998 14.4269765,5.93871811 L14.7065062,5.93531826 L14.7065062,5.93531826 L14.9926142,5.92496589 C17.1446078,5.82177331 19.3582035,4.47313889 20.7697481,2.40541615 C21.2785773,1.65994394 21.6651202,0.85294327 21.9290709,3.9879211e-13 L21.9290709,3.9879211e-13 Z" id="path-3"></path>
        <path d="M22.0891795,2.86892787 C21.7231852,1.8583142 21.241436,0.939332781 20.6246906,0.0814054321 C20.5830352,0.0291464173 20.5176353,0.0341575557 20.488978,0.0465319995 C20.2178597,0.163526741 20.7540577,1.12413129 20.6159911,1.555396 C20.4757752,1.99555804 19.5655998,2.51098942 19.8164533,3.67030095 C19.8814439,3.97076471 20.033225,4.13654135 20.2477452,4.29914768 C19.8358993,4.01658084 18.9476262,4.12979166 18.6955446,4.2073109 C18.0546452,4.38740508 17.5491515,4.97994663 17.5089289,5.65931382 C17.4791459,6.16175715 16.5029564,6.29480799 16.5476822,6.56694348 C16.5711198,6.70940299 17.5587721,6.86607777 18.4100977,6.3397037 C19.2932534,5.79359188 20.5128249,5.85945255 20.7730943,6.43972193 C21.1786971,7.34387447 20.4128315,8.35929474 19.6316139,8.74085714 C18.5413071,9.27326503 17.4481346,9.16864473 16.310441,8.77286706 C15.6032205,8.39457725 14.777277,7.55945569 15.4865445,5.59928243 C15.7248092,4.9408802 16.1875218,3.89846115 15.226275,4.03856849 C14.6178198,4.12713269 13.211669,4.98792354 11.8173904,6.62830436 C11.5427924,6.50507126 11.2641004,6.38776972 10.9807005,6.2796723 C9.47158819,5.70390273 7.4962835,5.27908091 5.07320898,5.69930066 C2.10666979,6.21381163 0.0304505825,8.84353434 0.000565143764,9.91213404 C-0.00731560549,10.189792 0.138631777,10.3646705 0.140576377,10.3663068 C0.821493582,10.9466785 2.10769327,9.31836527 4.57754055,9.6388736 C7.56813137,10.0269812 9.14796573,13.074776 12.9181366,13.9662473 C13.4254727,14.4878148 13.8843984,15.0809699 14.0312669,15.325493 C14.2977795,15.7642233 14.8358197,16.6338092 15.1913746,16.5474949 C15.9168129,16.3714915 16.1761612,15.1963284 16.1330729,14.1481823 C19.7674289,13.6167971 23.8868091,9.25393635 22.0891795,2.86892787" id="path-5"></path>
    </defs>
    <g id="ðŸ¥‘-é£Žæ ¼ç¡®å®š" stroke="none" stroke-width="1" fill="none" fill-rule="evenodd">
        <g id="æˆåŠŸæç¤º" transform="translate(-48.000000, -398.000000)">
            <g id="åˆ—è¡¨" transform="translate(32.000000, 385.000000)">
                <g id="åˆ—-1">
                    <g id="1-240301202PQ64.jpg" transform="translate(16.000000, 13.000000)">
                        <mask id="mask-2" fill="white">
                            <use xlink:href="#path-1"></use>
                        </mask>
                        <use id="è’™ç‰ˆ" fill="#171717" xlink:href="#path-1"></use>
                        <g id="å›¾å½¢" mask="url(#mask-2)">
                            <g transform="translate(22.000000, 22.500000) scale(-1, 1) rotate(-328.000000) translate(-22.000000, -22.500000) translate(10.000000, 13.000000)">
                                <g id="ä¸‹åŠéƒ¨åˆ†" transform="translate(0.784392, 8.723551)">
                                    <mask id="mask-4" fill="white">
                                        <use xlink:href="#path-3"></use>
                                    </mask>
                                    <use id="å½¢çŠ¶ç»“åˆ" fill="#FFFFFF" xlink:href="#path-3"></use>
                                </g>
                                <g id="ä¸ŠåŠéƒ¨åˆ†" transform="translate(0.015863, 0.004805)">
                                    <mask id="mask-6" fill="white">
                                        <use xlink:href="#path-5"></use>
                                    </mask>
                                    <g id="Clip-8"></g>
                                    <path d="M22.0891795,2.86892787 C21.7231852,1.8583142 21.241436,0.939332781 20.6246906,0.0814054321 C20.5830352,0.0291464173 20.5176353,0.0341575557 20.488978,0.0465319995 C20.2178597,0.163526741 20.7540577,1.12413129 20.6159911,1.555396 C20.4757752,1.99555804 19.5655998,2.51098942 19.8164533,3.67030095 C19.8814439,3.97076471 20.033225,4.13654135 20.2477452,4.29914768 C19.8358993,4.01658084 18.9476262,4.12979166 18.6955446,4.2073109 C18.0546452,4.38740508 17.5491515,4.97994663 17.5089289,5.65931382 C17.4791459,6.16175715 16.5029564,6.29480799 16.5476822,6.56694348 C16.5711198,6.70940299 17.5587721,6.86607777 18.4100977,6.3397037 C19.2932534,5.79359188 20.5128249,5.85945255 20.7730943,6.43972193 C21.1786971,7.34387447 20.4128315,8.35929474 19.6316139,8.74085714 C18.5413071,9.27326503 17.4481346,9.16864473 16.310441,8.77286706 C15.6032205,8.39457725 14.777277,7.55945569 15.4865445,5.59928243 C15.7248092,4.9408802 16.1875218,3.89846115 15.226275,4.03856849 C14.6178198,4.12713269 13.211669,4.98792354 11.8173904,6.62830436 C11.5427924,6.50507126 11.2641004,6.38776972 10.9807005,6.2796723 C9.47158819,5.70390273 7.4962835,5.27908091 5.07320898,5.69930066 C2.10666979,6.21381163 0.0304505825,8.84353434 0.000565143764,9.91213404 C-0.00731560549,10.189792 0.138631777,10.3646705 0.140576377,10.3663068 C0.821493582,10.9466785 2.10769327,9.31836527 4.57754055,9.6388736 C7.56813137,10.0269812 9.14796573,13.074776 12.9181366,13.9662473 C13.4254727,14.4878148 13.8843984,15.0809699 14.0312669,15.325493 C14.2977795,15.7642233 14.8358197,16.6338092 15.1913746,16.5474949 C15.9168129,16.3714915 16.1761612,15.1963284 16.1330729,14.1481823 C19.7674289,13.6167971 23.8868091,9.25393635 22.0891795,2.86892787" id="Fill-7" fill="#74E6D8" mask="url(#mask-6)"></path>
                                </g>
                                <g id="çœ¼ç›" transform="translate(5.931667, 8.132503)">
                                    <path d="M0.0118952367,0.41427018 C0.0829087883,0.639091234 1.35659918,1.14336949 1.68640562,1.33516191 C2.073565,1.56008586 2.74033346,2.00468621 3.03913247,1.4822988 C3.44222924,0.777688011 2.30872286,0.110015783 1.54502903,0.0295535116 C0.804428156,-0.0486451158 -0.115387068,0.0116501416 0.0118952367,0.41427018" id="Fill-9" fill="#171717"></path>
                                </g>
                            </g>
                        </g>
                    </g>
                </g>
            </g>
        </g>
    </g>
</svg>