<?xml version="1.0" encoding="UTF-8"?>
<svg width="24px" height="24px" viewBox="0 0 24 24" version="1.1" xmlns="http://www.w3.org/2000/svg" xmlns:xlink="http://www.w3.org/1999/xlink">
    <!-- Generator: Sketch 58 (84663) - https://sketch.com -->
    <title>eye-close</title>
    <desc>Created with Sketch.</desc>
    <g id="ðŸ¥‘-é£Žæ ¼ç¡®å®š" stroke="none" stroke-width="1" fill="none" fill-rule="evenodd">
        <g id="è¾“å…¥å¯†ç " transform="translate(-343.000000, -446.000000)">
            <g transform="translate(32.000000, 346.000000)" id="ç¡®è®¤å¯†ç ">
                <g transform="translate(0.000000, 88.000000)">
                    <g id="éšè—çœ¼ç›" transform="translate(311.000000, 12.000000)">
                        <rect id="çŸ©å½¢" x="0" y="0" width="24" height="24"></rect>
                        <path d="M8.21880621,5.32029201 L19.0712902,16.172539 C19.4983556,16.599595 19.4983556,17.2938465 19.0690065,17.7231862 C18.6419411,18.1502423 17.9476745,18.1502423 17.5183254,17.7231862 L16.2541963,16.4585654 C14.956667,16.9138759 13.5267957,17.173913 12.0139742,17.173913 C7.38666385,17.173913 3.46175548,14.8390704 2,11.5877475 C2.87051011,9.6506496 4.62523352,8.05608608 6.8721959,7.07361955 L6.66812509,6.87093926 C6.24105975,6.44388324 6.24105975,5.74963175 6.66812509,5.32029201 C7.09519044,4.893236 7.78945709,4.893236 8.21880621,5.32029201 Z M8.61343672,8.81537465 C7.8969865,9.5528635 7.45785324,10.5206357 7.45785324,11.5877475 C7.45785324,13.9007692 9.49861576,15.7773717 12.0139742,15.7773717 C13.0369417,15.7773717 13.9759621,15.4635813 14.7334913,14.9379295 L13.6282553,13.8327956 C13.1576027,14.1144583 12.5969526,14.278355 11.9926469,14.278355 C10.3156621,14.278355 8.95652174,13.0236059 8.95652174,11.4754251 C8.95652174,10.83667 9.18924941,10.2507476 9.57970599,9.78187071 Z M11.9902749,5.86956522 C16.6156218,5.86956522 20.5388648,8.21263946 22,11.4754251 C21.5173035,12.5513414 20.7615502,13.520536 19.8058209,14.3442147 L19.5402642,14.5652174 L16.513627,11.7710466 C16.5231149,11.6725061 16.5468346,11.5761554 16.5468346,11.4754251 C16.5468346,9.15424874 14.506938,7.27103019 11.9926469,7.27103019 L11.8316492,7.2838952 L11.8316492,7.2838952 L11.6724306,7.30168723 L10.244503,5.98562404 C10.8137764,5.91117121 11.3949097,5.86956522 11.9902749,5.86956522 Z" id="å½¢çŠ¶ç»“åˆ" fill="#D8D8D8" fill-rule="nonzero"></path>
                    </g>
                </g>
            </g>
        </g>
    </g>
</svg>