<?xml version="1.0" encoding="UTF-8"?>
<svg width="24px" height="24px" viewBox="0 0 24 24" version="1.1" xmlns="http://www.w3.org/2000/svg" xmlns:xlink="http://www.w3.org/1999/xlink">
    <!-- Generator: Sketch 58 (84663) - https://sketch.com -->
    <title>key</title>
    <desc>Created with Sketch.</desc>
    <g id="🥑-风格确定" stroke="none" stroke-width="1" fill="none" fill-rule="evenodd">
        <g id="钱包列表页-设置" transform="translate(-183.000000, -226.000000)">
            <g id="显示" transform="translate(183.000000, 226.000000)">
                <g id="显示/icon">
                    <rect id="矩形" x="0" y="0" width="24" height="24"></rect>
                    <g id="钥匙" transform="translate(3.000000, 2.500000)" fill="#D8D8D8" fill-rule="nonzero">
                        <path d="M13.8921736,13.2890094 L11.4030861,10.7053583 L11.8776411,9.67689123 C13.00177,7.22954674 12.2891958,4.29770704 10.1813832,2.69775016 C8.07357071,1.09779328 5.16771453,1.28302598 3.26409502,3.13869008 C1.36047552,4.99435417 0.998434476,7.99469481 2.40226908,10.2808952 C3.80610369,12.5670957 6.57807339,13.4914196 9.00084527,12.4812157 L9.9507307,12.0841646 L15.0591757,17.3891862 L16.4487224,15.9451444 L14.9886128,14.4286185 L16.2866603,13.0804166 L15.1902212,11.9408074 L13.8921736,13.2890094 L13.8921736,13.2890094 Z M14.093782,10.8020036 C14.6993822,10.173194 15.6810601,10.173194 16.2866603,10.8020036 L17.3830995,11.9408074 C17.6740731,12.2429013 17.8375502,12.652702 17.8375502,13.0800139 C17.8375502,13.5073257 17.6740731,13.9171265 17.3830995,14.2192204 L17.1814912,14.4286185 L17.545937,14.8063406 C18.1513543,15.4353402 18.1513543,16.4549486 17.545937,17.0839482 L16.1556149,18.52799 C15.8647592,18.8302064 15.4702035,19 15.058788,19 C14.6473726,19 14.2528169,18.8302064 13.9619611,18.52799 L9.5785307,13.975191 C6.46327566,15.2739316 2.89915783,14.0850795 1.09449347,11.1452437 C-0.710170879,8.20540788 -0.244009033,4.34762521 2.20414659,1.96216575 C4.65230222,-0.423293708 8.38873812,-0.660482149 11.0983703,1.39756164 C13.8080025,3.45560544 14.723025,7.22571071 13.2764928,10.371932 L13.8921736,11.0114018 L14.093782,10.8020036 L14.093782,10.8020036 Z M6.97778318,8.85782231 C7.83428478,8.85782231 8.52861652,8.13666273 8.52861652,7.2470673 C8.52861652,6.35747187 7.83428478,5.63631229 6.97778318,5.63631229 C6.12128159,5.63631229 5.42694987,6.35747189 5.42694987,7.2470673 C5.42694987,8.13666271 6.12128159,8.85782231 6.97778318,8.85782231 L6.97778318,8.85782231 Z M6.97778318,10.4685773 C5.86966439,10.4685773 4.84572039,9.85456101 4.29166099,8.85782233 C3.73760159,7.86108365 3.73760159,6.63305095 4.29166099,5.63631227 C4.84572039,4.63957359 5.86966439,4.02555727 6.97778318,4.02555727 C8.69078637,4.02555727 10.0794498,5.46787645 10.0794498,7.2470673 C10.0794498,9.02625814 8.69078637,10.4685773 6.97778318,10.4685773 Z" id="形状"></path>
                    </g>
                </g>
            </g>
        </g>
    </g>
</svg>