<?xml version="1.0" encoding="UTF-8"?>
<svg width="24px" height="24px" viewBox="0 0 24 24" version="1.1" xmlns="http://www.w3.org/2000/svg" xmlns:xlink="http://www.w3.org/1999/xlink">
    <!-- Generator: Sketch 58 (84663) - https://sketch.com -->
    <title>error</title>
    <desc>Created with Sketch.</desc>
    <g id="ðŸ¥‘-é£Žæ ¼ç¡®å®š" stroke="none" stroke-width="1" fill="none" fill-rule="evenodd">
        <g id="é”™è¯¯æç¤º" transform="translate(-96.000000, -769.000000)">
            <g transform="translate(72.000000, 760.000000)" id="é”™è¯¯">
                <g transform="translate(24.000000, 9.000000)">
                    <rect id="çŸ©å½¢" x="0" y="0" width="24" height="24"></rect>
                    <g transform="translate(4.000000, 4.000000)" fill="#E64E4E" fill-rule="nonzero" id="å½¢çŠ¶">
                        <path d="M8,0 C3.59955407,0 0,3.59955407 0,8 C0,12.4004459 3.59955407,16 8,16 C12.4004459,16 16,12.4004459 16,8 C16,3.59955407 12.4004459,0 8,0 Z M11.8225195,10.7558528 C12.090078,11.0234114 12.090078,11.5121516 11.8225195,11.7779264 C11.6887402,11.9117057 11.5121516,12.0008919 11.2891862,12.0008919 C11.1108138,12.0008919 10.8896321,11.9117057 10.7558528,11.7779264 L8.17837235,9.20044593 L5.60089186,11.7779264 C5.33333333,12.0454849 4.84459309,12.0454849 4.57881828,11.7779264 C4.31304348,11.5103679 4.31125975,11.0216276 4.57881828,10.7558528 L7.15629877,8.17837235 L4.57881828,5.60089186 C4.44503902,5.4671126 4.35585284,5.29052397 4.35585284,5.06755853 C4.35585284,4.88918618 4.44503902,4.66800446 4.57881828,4.5342252 C4.84637681,4.26666667 5.33511706,4.26666667 5.60089186,4.5342252 L8.17837235,7.11170569 L10.7558528,4.5342252 C10.8896321,4.40044593 11.0662207,4.31125975 11.2891862,4.31125975 C11.4675585,4.31125975 11.6887402,4.40044593 11.8225195,4.5342252 C11.9562988,4.66800446 12.0454849,4.84459309 12.0454849,5.06755853 C12.0454849,5.24593088 11.9562988,5.4671126 11.8225195,5.60089186 L9.24503902,8.17837235 L11.8225195,10.7558528 Z"></path>
                    </g>
                </g>
            </g>
        </g>
    </g>
</svg>