<?xml version="1.0" encoding="UTF-8"?>
<svg width="24px" height="24px" viewBox="0 0 24 24" version="1.1" xmlns="http://www.w3.org/2000/svg" xmlns:xlink="http://www.w3.org/1999/xlink">
    <!-- Generator: Sketch 58 (84663) - https://sketch.com -->
    <title>success</title>
    <desc>Created with Sketch.</desc>
    <g id="ðŸ¥‘-é£Žæ ¼ç¡®å®š" stroke="none" stroke-width="1" fill="none" fill-rule="evenodd">
        <g id="æˆåŠŸæç¤º" transform="translate(-84.000000, -769.000000)">
            <g id="é”™è¯¯æç¤º" transform="translate(60.000000, 760.000000)">
                <g id="é”™è¯¯" transform="translate(24.000000, 9.000000)">
                    <rect id="çŸ©å½¢" x="0" y="0" width="24" height="24"></rect>
                    <g id="æˆåŠŸ" transform="translate(4.000000, 4.000000)" fill="#76D44D" fill-rule="nonzero">
                        <path d="M8,0 C3.58172581,0 0,3.58172581 0,8 C0,12.4182742 3.58172581,16 8,16 C12.4182742,16 16,12.4182742 16,8 C16,3.58172581 12.4182742,0 8,0 Z M12.5219597,6.30575 L7.30705645,11.520621 C7.18502419,11.6426532 6.98715323,11.6426532 6.86512097,11.520621 L3.77152419,8.42702419 C3.64949194,8.30502419 3.64949194,8.10715323 3.77152419,7.98512097 L4.74379839,7.01287903 C4.86583065,6.89081452 5.06370161,6.89084677 5.18573387,7.01287903 L7.08610484,8.91318548 L11.1077984,4.89152419 C11.2298306,4.76949194 11.4276694,4.76949194 11.5497339,4.89152419 L12.5219919,5.86379839 C12.6439919,5.98583065 12.6440242,6.18370161 12.5219597,6.30573387 L12.5219597,6.30575 Z" id="å½¢çŠ¶"></path>
                    </g>
                </g>
            </g>
        </g>
    </g>
</svg>