<?xml version="1.0" encoding="UTF-8"?>
<svg width="24px" height="24px" viewBox="0 0 24 24" version="1.1" xmlns="http://www.w3.org/2000/svg" xmlns:xlink="http://www.w3.org/1999/xlink">
    <!-- Generator: Sketch 58 (84663) - https://sketch.com -->
    <title>share</title>
    <desc>Created with Sketch.</desc>
    <g id="ðŸ¥‘-é£Žæ ¼ç¡®å®š" stroke="none" stroke-width="1" fill="none" fill-rule="evenodd">
        <g id="å‘é€æˆåŠŸé¡µé¢" transform="translate(-122.000000, -399.000000)">
            <g id="æŸ¥çœ‹äº¤æ˜“" transform="translate(122.000000, 399.000000)">
                <g id="åˆ†äº«">
                    <g id="åˆ†äº«icon">
                        <rect id="çŸ©å½¢" x="0" y="0" width="24" height="24"></rect>
                        <g id="ç¼–ç»„" transform="translate(5.000000, 5.000000)" fill="#74E6D8" fill-rule="nonzero">
                            <path d="M13.125,14 L0.875,14 C0.391750844,14 0,13.6074313 0,13.1231733 L0,0.876826723 C0,0.392568696 0.391750844,0 0.875,0 L3.45625,0 C3.93949916,0 4.33125,0.392568696 4.33125,0.876826723 C4.33125,1.36108475 3.93949916,1.75365345 3.45625,1.75365345 L1.75,1.75365345 L1.75,12.2463466 L12.25,12.2463466 L12.25,10.5073069 C12.25,10.0230489 12.6417508,9.63048017 13.125,9.63048017 C13.6082492,9.63048017 14,10.0230489 14,10.5073069 L14,13.1231733 C14,13.6074313 13.6082492,14 13.125,14 Z" id="è·¯å¾„"></path>
                            <path d="M4.90121241,10 C4.535007,10.000948 4.2048393,9.77883978 4.06656611,9.43851933 C3.92829291,9.09819889 4.00956285,8.70771548 4.27201217,8.45139813 L11.4628721,1.26469683 C11.6903398,1.03640948 12.0218812,0.947253126 12.3326078,1.03081209 C12.6433345,1.11437105 12.8860396,1.35795074 12.9692985,1.66979704 C13.0525575,1.98164334 12.9637212,2.31437938 12.7362535,2.54266672 L5.53041266,9.74440298 C5.36202617,9.90885837 5.13617062,10.0006055 4.90121241,10 Z" id="è·¯å¾„"></path>
                            <path d="M13.125,7 C12.6417508,7 12.25,6.60661003 12.25,6.12133891 L12.25,1.75732218 L7.875,1.75732218 C7.39175084,1.75732218 7,1.36393221 7,0.878661089 C7,0.393389969 7.39175084,0 7.875,0 L13.125,0 C13.6082492,0 14,0.393389969 14,0.878661089 L14,6.12133891 C14,6.60661003 13.6082492,7 13.125,7 Z" id="è·¯å¾„"></path>
                        </g>
                    </g>
                </g>
            </g>
        </g>
    </g>
</svg>