<?xml version="1.0" encoding="UTF-8"?>
<svg width="24px" height="24px" viewBox="0 0 24 24" version="1.1" xmlns="http://www.w3.org/2000/svg" xmlns:xlink="http://www.w3.org/1999/xlink">
    <!-- Generator: Sketch 58 (84663) - https://sketch.com -->
    <title>User</title>
    <desc>Created with Sketch.</desc>
    <g id="ðŸ¥‘-é£Žæ ¼ç¡®å®š" stroke="none" stroke-width="1" fill="none" fill-rule="evenodd">
        <g id="å‘é€é¡µé¢-æœªè¾“å…¥çŠ¶æ€" transform="translate(-342.000000, -244.000000)">
            <g id="è¾“å…¥æ¡†2" transform="translate(32.000000, 198.000000)">
                <g id="è¾“å…¥æ¡†" transform="translate(0.000000, 34.000000)">
                    <g id="2" transform="translate(294.000000, 0.000000)">
                        <g id="é€šè®¯å½•" transform="translate(16.000000, 12.000000)">
                            <g>
                                <rect id="çŸ©å½¢" x="0" y="0" width="24" height="24"></rect>
                                <path d="M3,16.7648571 L3.52971429,16.7648571 C4.11446549,16.7648571 4.5885,16.2908226 4.5885,15.7060714 C4.5885,15.1213202 4.11446549,14.6472857 3.52971429,14.6472857 L3,14.6472857 L3,13.0594286 L3.52971429,13.0594286 C4.11464301,13.0594286 4.58882143,12.5852502 4.58882143,12.0003214 C4.58882143,11.4153927 4.11464301,10.9412143 3.52971429,10.9412143 L3,10.9412143 L3,9.35335714 L3.52971429,9.35335714 C4.11464301,9.35335714 4.58882143,8.87917872 4.58882143,8.29425 C4.58882143,7.70932128 4.11464301,7.23514286 3.52971429,7.23514286 L3,7.23514286 L3,4.28571429 C3,3.57563389 3.57563389,3 4.28571429,3 L19.7142857,3 C20.4243661,3 21,3.57563389 21,4.28571429 L21,19.7142857 C21,20.4243661 20.4243661,21 19.7142857,21 L4.28571429,21 C3.57563389,21 3,20.4243661 3,19.7142857 L3,16.7648571 Z M10.3404502,12.8415821 C8.8792359,13.3121535 7.78187875,14.4294392 7.04902161,16.1960107 C6.96680793,16.3942996 6.98898917,16.6205399 7.10814879,16.7990857 C7.22730842,16.9776315 7.42772185,17.0849215 7.64237875,17.0850821 L16.5138073,17.0850821 C16.7285781,17.0850821 16.9291894,16.9779337 17.0485015,16.7993529 C17.1678137,16.6207721 17.1900645,16.3944048 17.1078073,16.1960107 C16.3299502,14.3207964 15.1400216,13.1758678 13.5393073,12.7612249 C14.7839636,12.0049262 15.3645622,10.5062599 14.9542852,9.10882307 C14.5440082,7.7113862 13.2453966,6.76444204 11.7894369,6.80102394 C10.3334771,6.83760585 9.08405925,7.84857085 8.74447857,9.26484836 C8.4048979,10.6811259 9.0600263,12.1487437 10.341093,12.8415821 L10.3404502,12.8415821 Z" id="å½¢çŠ¶" fill="#FFFFFF" fill-rule="nonzero"></path>
                            </g>
                        </g>
                    </g>
                </g>
            </g>
        </g>
    </g>
</svg>