<?xml version="1.0" encoding="UTF-8"?>
<svg width="24px" height="24px" viewBox="0 0 24 24" version="1.1" xmlns="http://www.w3.org/2000/svg" xmlns:xlink="http://www.w3.org/1999/xlink">
    <!-- Generator: Sketch 58 (84663) - https://sketch.com -->
    <title>çŸ©å½¢</title>
    <desc>Created with Sketch.</desc>
    <g id="ðŸ¥‘-é£Žæ ¼ç¡®å®š" stroke="none" stroke-width="1" fill="none" fill-rule="evenodd">
        <g id="æ‰¹å‡†/ç­¾ååŽ†å²è®°å½•" transform="translate(-48.000000, -273.000000)">
            <g id="åˆ—-2" transform="translate(32.000000, 256.000000)">
                <g id="å†…å®¹" transform="translate(16.000000, 17.000000)">
                    <g id="1">
                        <g id="ç®­å¤´">
                            <rect id="çŸ©å½¢" x="0" y="0" width="24" height="24"></rect>
                            <g id="_ä¸‹æ‹‰ç®­å¤´å°" transform="translate(4.000000, 12.500000) rotate(-90.000000) translate(-4.000000, -12.500000) translate(-1.000000, 9.000000)" fill="#D8D8D8" fill-rule="nonzero">
                                <path d="M4.64509492,6.03120384 C4.8177347,6.22593483 5.11554754,6.24384329 5.31027853,6.07120352 C5.32430025,6.05877249 5.33756796,6.04551611 5.35001097,6.03150502 L9.85517506,0.958593357 L9.85517506,0.958593357 C10.048275,0.73898174 10.048275,0.385153566 9.85517506,0.165541949 C9.76199455,0.0598345126 9.63524031,0.000338476643 9.50299035,0.000233127773 C9.37074039,0.000127778904 9.24391157,0.0594218133 9.15059842,0.164980691 L4.99837982,4.84022359 L0.849649211,0.164980691 C0.756487686,0.0593813375 0.629778573,0 0.497610036,0 C0.365441499,0 0.238732386,0.0593813375 0.145570861,0.164980691 C-0.0481344273,0.384350164 -0.0485792813,0.738607557 0.144574293,0.958593357 L4.62566176,6.00819245 L4.64559321,6.03120384 L4.64509492,6.03120384 Z" id="è·¯å¾„"></path>
                            </g>
                        </g>
                    </g>
                </g>
            </g>
        </g>
    </g>
</svg>