<?xml version="1.0" encoding="UTF-8"?>
<svg width="24px" height="24px" viewBox="0 0 24 24" version="1.1" xmlns="http://www.w3.org/2000/svg" xmlns:xlink="http://www.w3.org/1999/xlink">
    <!-- Generator: Sketch 58 (84663) - https://sketch.com -->
    <title>send</title>
    <desc>Created with Sketch.</desc>
    <g id="ðŸ¥‘-é£Žæ ¼ç¡®å®š" stroke="none" stroke-width="1" fill="none" fill-rule="evenodd">
        <g id="é¦–é¡µ" transform="translate(-276.000000, -225.000000)">
            <g id="å‘é€-æŒ‰é’®" transform="translate(238.000000, 215.000000)">
                <g id="æ–‡å­—&amp;icon" transform="translate(38.000000, 10.000000)">
                    <g id="å‘é€-icon">
                        <rect id="çŸ©å½¢" x="0" y="0" width="24" height="24"></rect>
                        <g id="å‘é€-(1)" transform="translate(2.000000, 4.000000)" fill="#000000" fill-rule="nonzero">
                            <path d="M16.9654687,8.22234375 C14.7632691,8.22234375 12.9779852,10.0074879 12.9778126,12.2096876 C12.9776401,14.4118872 14.7626442,16.1973111 16.9648439,16.1976562 C19.1670436,16.1980013 20.9526073,14.4131371 20.9531252,12.2109375 C20.9534359,11.1531638 20.5334388,10.1386109 19.7855677,9.39056399 C19.0376967,8.64251711 18.0232425,8.22234375 16.9654687,8.22234375 L16.9654687,8.22234375 Z M19.6207031,12.6285938 L18.1982812,14.0582813 L17.9953125,14.2624219 C17.7714844,14.4874219 17.3596875,14.503125 17.1389062,14.2624219 C16.918125,14.0217188 16.9000781,13.6460156 17.1389062,13.4060156 L17.7314062,12.8102344 L15.2625,12.8165625 L14.7421875,12.8203125 C14.4253125,12.8203125 14.1220312,12.5411719 14.1365625,12.2146875 C14.1510937,11.8882031 14.4028125,11.61 14.7421875,11.6090625 L17.7309375,11.6015625 L17.34375,11.2157813 L17.1379687,11.0107031 C16.9129687,10.786875 16.8972656,10.3753125 17.1379687,10.1542969 C17.3786719,9.93328125 17.754375,9.91546875 17.994375,10.1542969 L19.4139844,11.5675781 L19.6197656,11.7726562 C19.8529687,12.00375 19.8515625,12.3970312 19.6207031,12.6290625 L19.6207031,12.6285938 Z M1.52859375,0.70078125 L3.97382812,2.349375 L6.79242188,4.24945312 L9.13101563,5.82609375 L9.81070313,6.285 C10.1095313,6.07546875 10.4177344,5.87742187 10.7175,5.67140625 L13.1130469,4.02609375 L15.8946094,2.11640625 L18.1778906,0.54796875 L18.7682813,0.1425 C18.5890789,0.0624837078 18.3950052,0.0211931316 18.19875,0.0213267846 L1.39921875,0.0213267846 C1.17742521,0.0210203069 0.958771147,0.0737351407 0.761484375,0.175078125 C1.01835938,0.34875 1.2721875,0.528046875 1.52859375,0.70078125 L1.52859375,0.70078125 Z" id="å½¢çŠ¶"></path>
                            <path d="M18.5235938,1.67203125 L16.1282813,3.31734375 L13.3476562,5.2265625 L11.0641406,6.795 C10.7444531,7.015 10.4246875,7.234375 10.1048437,7.453125 C9.95015625,7.55953125 9.69210937,7.55765625 9.5371875,7.453125 C9.5315625,7.44960938 9.52617187,7.445625 9.52078125,7.44210937 C9.11671875,7.18945312 8.72835937,6.90796875 8.33320312,6.64171875 L5.88820312,4.9940625 L3.0703125,3.09375 L0.731015625,1.51734375 L0.048046875,1.05679688 C0.016552994,1.17538977 0.000792858536,1.29760962 0.00116519865,1.4203125 L0.00116519865,14.15625 C0.00116519865,14.9290172 0.627623448,15.5554687 1.40039063,15.5554687 L13.2754688,15.5554687 C13.0623255,15.3202393 12.8717245,15.0655292 12.7061719,14.7946875 C12.1741406,13.9239844 11.9167969,12.8704687 11.9983594,11.8525781 C12.0805798,10.8112706 12.4815748,9.82056737 13.1467969,9.01523437 C14.4417188,7.43367187 16.7224219,6.81375 18.6410156,7.51945312 C18.9754332,7.64199917 19.2961535,7.7990995 19.5979688,7.98820313 L19.5979688,1.4203125 C19.5979688,1.27195047 19.5741906,1.12454718 19.5276563,0.983671875 C19.1953125,1.215 18.8582813,1.44234375 18.5235938,1.67203125 Z" id="è·¯å¾„"></path>
                        </g>
                    </g>
                </g>
            </g>
        </g>
    </g>
</svg>