<?xml version="1.0" standalone="no"?><!DOCTYPE svg PUBLIC "-//W3C//DTD SVG 1.1//EN" "http://www.w3.org/Graphics/SVG/1.1/DTD/svg11.dtd"><svg t="1762137888410" class="icon" viewBox="0 0 1024 1024" version="1.1" xmlns="http://www.w3.org/2000/svg" p-id="5781" width="64" height="64" xmlns:xlink="http://www.w3.org/1999/xlink"><path d="M928 640h-128v-234.624a287.584 287.584 0 0 0 116 85.664 32 32 0 0 0 24-59.328A223.136 223.136 0 0 1 800 224a32 32 0 0 0-64 0A224 224 0 1 1 288 224a32 32 0 0 0-64 0 223.104 223.104 0 0 1-140 207.712 32 32 0 0 0 24 59.328A287.552 287.552 0 0 0 224 405.344V640H96a32 32 0 0 0 0 64h128v96a32 32 0 1 0 64 0v-96h448v96a32 32 0 0 0 64 0v-96h128a32 32 0 0 0 0-64z m-352-135.2V640h-128v-135.2c42.112 9.6 85.856 9.6 128 0zM288 404.8a289.92 289.92 0 0 0 96 77.088V640H288v-235.2zM640 640v-158.08a289.856 289.856 0 0 0 96-77.088V640h-96z" p-id="5782" fill="#171717"></path></svg>