<?xml version="1.0" encoding="UTF-8"?>
<svg width="24px" height="24px" viewBox="0 0 24 24" version="1.1" xmlns="http://www.w3.org/2000/svg" xmlns:xlink="http://www.w3.org/1999/xlink">
    <!-- Generator: Sketch 58 (84663) - https://sketch.com -->
    <title>arrow-left</title>
    <desc>Created with Sketch.</desc>
    <g id="ðŸ¥‘-é£Žæ ¼ç¡®å®š" stroke="none" stroke-width="1" fill="none" fill-rule="evenodd">
        <g id="åˆ›å»ºåŠ©è®°è¯" transform="translate(-32.000000, -40.000000)">
            <g id="Tab" transform="translate(0.000000, 30.000000)">
                <g id="icon/è¿”å›ž" transform="translate(32.000000, 10.000000)">
                    <rect id="çŸ©å½¢" x="0" y="0" width="24" height="24"></rect>
                    <path d="M7.67449615,13.3406886 C7.88290557,13.1133377 8,12.8048963 8,12.4832705 C8,12.1616447 7.88290557,11.8532033 7.67449615,11.6258524 L1.91628499,5.3402746 C1.48055592,4.88089058 0.787942735,4.88746042 0.359592902,5.35504073 C-0.0687569303,5.82262104 -0.0747755516,6.57866731 0.346065669,7.05430269 L5.31731638,12.4816542 L0.33866246,17.9162789 C0.0501202507,18.2207766 -0.0654570262,18.6715287 0.0363525207,19.0952895 C0.138162068,19.5190503 0.441514642,19.8498734 0.829817298,19.9606075 C1.21811995,20.0713417 1.63094429,19.9447542 1.90962211,19.6294989 L7.62637534,13.389176 L7.67449615,13.3406886 Z" id="å½¢çŠ¶ç»“åˆ" fill="#D8D8D8" fill-rule="nonzero" transform="translate(4.000000, 12.500000) scale(-1, 1) translate(-4.000000, -12.500000) "></path>
                </g>
            </g>
        </g>
    </g>
</svg>