<?xml version="1.0" encoding="UTF-8"?>
<svg width="24px" height="24px" viewBox="0 0 24 24" version="1.1" xmlns="http://www.w3.org/2000/svg" xmlns:xlink="http://www.w3.org/1999/xlink">
    <!-- Generator: Sketch 58 (84663) - https://sketch.com -->
    <title>setting</title>
    <desc>Created with Sketch.</desc>
    <g id="🥑-风格确定" stroke="none" stroke-width="1" fill="none" fill-rule="evenodd">
        <g id="钱包列表页" transform="translate(-341.000000, -114.000000)">
            <g id="输入框1" transform="translate(33.000000, 86.000000)">
                <g id="设置" transform="translate(290.000000, 0.000000)">
                    <g id="设置/icon" transform="translate(18.000000, 28.000000)">
                        <rect id="矩形" x="0" y="0" width="24" height="24"></rect>
                        <g id="设置" transform="translate(2.000000, 3.000000)" fill="#D8D8D8" fill-rule="nonzero">
                            <path d="M19.7431152,7.54990234 C19.5694434,6.62847656 18.9302344,6.01821289 18.0884082,6.01821289 L18.0522266,6.01821289 C17.200752,6.01821289 16.5060645,5.32111328 16.5060645,4.46481445 C16.5060645,4.2718457 16.6001367,3.98962891 16.6411426,3.89073242 C17.002959,3.07543945 16.7255664,2.07441406 15.9729883,1.54616211 L13.6139453,0.226738281 L13.5174609,0.180908203 C13.2810742,0.0771875 13.0181543,0.0289453125 12.7576465,0.0289453125 C12.2125098,0.0289453125 11.6625488,0.241210937 11.2934961,0.624736328 C10.9413281,0.988964844 10.3093555,1.41108398 10.0199023,1.41108398 C9.72803711,1.41108398 9.09124023,0.979316406 8.74148438,0.610263672 C8.37243164,0.219501953 7.8224707,-2.30926389e-14 7.27250977,-2.30926389e-14 C7.01441406,-2.30926389e-14 6.75390625,0.0482421875 6.51269531,0.151962891 L4.04993164,1.50033203 L3.95344727,1.56304687 C3.22016602,2.07441406 2.94277344,3.07302734 3.30217773,3.88832031 C3.34800781,3.99445312 3.44208008,4.27425781 3.44208008,4.46722656 C3.44208008,5.32352539 2.74739258,6.020625 1.83561523,6.020625 L1.79702148,6.020625 C1.01549805,6.020625 0.376289063,6.63088867 0.202617188,7.56678711 C0.154375,7.82970703 3.55271368e-13,8.74630859 3.55271368e-13,9.50612305 C3.55271368e-13,10.2683496 0.154375,11.1825391 0.205029297,11.4623437 C0.378701172,12.3789453 1.02032227,12.9940332 1.8018457,12.9940332 L1.89591797,12.9940332 C2.74739258,12.9940332 3.44208008,13.6911328 3.44208008,14.5450195 C3.44208008,14.730752 3.35524414,15.0033203 3.30458984,15.1191016 C2.94518555,15.9343945 3.22016602,16.9330078 3.95827148,17.4540234 L6.28354492,18.7662109 L6.37761719,18.812041 C6.61400391,18.9181738 6.87451172,18.966416 7.13743164,18.966416 C7.6922168,18.966416 8.25423828,18.7420898 8.62087891,18.3392676 C8.96581055,17.9653906 9.63396484,17.5022656 9.92100586,17.5022656 C10.2201074,17.5022656 10.871377,17.9629785 11.2283691,18.3561523 C11.5974219,18.7637988 12.1353223,19.0001855 12.7094043,19.0001855 C12.9795605,19.0001855 13.2352441,18.9495312 13.474043,18.8458105 L15.8933887,17.5119141 L15.989873,17.4491992 C16.7207422,16.937832 16.9981348,15.9392187 16.6387305,15.1263379 C16.5953125,15.0202051 16.5012402,14.7404004 16.5012402,14.5474316 C16.5012402,13.6911328 17.1959277,12.9964453 18.1125293,12.9964453 C18.898877,12.9867969 19.562207,12.3958301 19.7407031,11.4502832 C19.7889453,11.1873633 19.9434292,10.2707617 19.9434292,9.51094727 C19.9481445,8.74630859 19.7913574,7.82729492 19.7431152,7.54990234 L19.7431152,7.54990234 Z M18.3416797,11.1873633 C18.3079102,11.3706836 18.2114258,11.5660645 18.0956445,11.5660645 C16.4119922,11.5660645 15.0805078,12.8734277 15.0805078,14.5426074 C15.0805078,15.0370898 15.2710645,15.5315723 15.3289551,15.6714746 C15.4254395,15.8885645 15.348252,16.1587207 15.1769922,16.2769141 L15.172168,16.2793262 L12.8686035,17.5505078 C12.8227734,17.5649805 12.7721191,17.5722168 12.7142285,17.5722168 C12.547793,17.5722168 12.3910059,17.5070898 12.2945215,17.400957 C12.1642676,17.2586426 11.0522852,16.076709 9.92824219,16.076709 C8.78490234,16.076709 7.5909082,17.3599512 7.57884766,17.3720117 C7.4871875,17.4733203 7.30869141,17.5408594 7.14225586,17.5408594 C7.07954102,17.5408594 7.01923828,17.5312109 6.97099609,17.5119141 L6.946875,17.4998535 L4.74461914,16.2576172 C4.59024414,16.1225391 4.5275293,15.8740918 4.60954102,15.6931836 C4.66019531,15.5725781 4.86763672,15.0563867 4.86763672,14.5426074 C4.86763672,12.902373 3.53374023,11.5660645 1.89591797,11.5660645 L1.8018457,11.5660645 C1.76807617,11.5588281 1.65470703,11.4502832 1.60405273,11.1945996 C1.56304688,10.9702734 1.42555664,10.1405078 1.42555664,9.50371094 C1.42555664,8.99716797 1.5172168,8.30248047 1.60405273,7.81764648 C1.64988281,7.57402344 1.75601563,7.45824219 1.78978516,7.44135742 L1.83561523,7.44135742 C3.53374023,7.43894531 4.86522461,6.13158203 4.86522461,4.46240234 C4.86522461,3.94862305 4.6577832,3.43001953 4.61436523,3.33112305 C4.52270508,3.12368164 4.59265625,2.86317383 4.75426758,2.73774414 L4.77838867,2.72327148 L7.11331055,1.44244141 C7.15914063,1.42796875 7.21461914,1.42073242 7.27009766,1.42073242 C7.4365332,1.42073242 7.61020508,1.48827148 7.70427734,1.58716797 C7.75251953,1.63782227 8.89827148,2.83181641 10.0174902,2.83181641 C11.1222363,2.83181641 12.2655762,1.66194336 12.3138184,1.61128906 C12.4078906,1.51480469 12.5863867,1.44726562 12.7528223,1.44726562 C12.8179492,1.44726562 12.878252,1.45691406 12.9264941,1.47621094 L12.945791,1.48585937 L15.1866406,2.73774414 C15.348252,2.88005859 15.415791,3.12609375 15.3337793,3.31182617 C15.283125,3.43001953 15.0756836,3.94379883 15.0756836,4.46240234 C15.0756836,6.10504883 16.407168,7.43894531 18.0474023,7.43894531 C18.2500195,7.43894531 18.3151465,7.69945312 18.3368555,7.81041016 C18.4236914,8.2855957 18.5177637,8.98751953 18.5177637,9.50129883 C18.5225879,10.0223145 18.4261035,10.7338867 18.3416797,11.1873633 Z" id="形状"></path>
                            <path d="M9.97407227,5.69981445 C7.87553711,5.69981445 6.17258789,7.40035156 6.17258789,9.49888672 C6.17258789,11.5974219 7.873125,13.3003711 9.97407227,13.3003711 C12.0726074,13.3003711 13.7731445,11.599834 13.7731445,9.49888672 C13.7731445,7.40035156 12.0726074,5.69981445 9.97407227,5.69981445 Z M9.97407227,11.8748145 C8.66429687,11.8748145 7.59814453,10.8110742 7.59814453,9.50129883 C7.59814453,8.19152344 8.66429687,7.1277832 9.97407227,7.1277832 C11.2838477,7.1277832 12.3475879,8.19152344 12.3475879,9.50129883 C12.3475879,10.8086621 11.2838477,11.8748145 9.97407227,11.8748145 Z" id="形状"></path>
                        </g>
                    </g>
                </g>
            </g>
        </g>
    </g>
</svg>