<?xml version="1.0" encoding="UTF-8"?>
<svg width="24px" height="24px" viewBox="0 0 24 24" version="1.1" xmlns="http://www.w3.org/2000/svg" xmlns:xlink="http://www.w3.org/1999/xlink">
    <!-- Generator: Sketch 58 (84663) - https://sketch.com -->
    <title>receive</title>
    <desc>Created with Sketch.</desc>
    <g id="🥑-风格确定" stroke="none" stroke-width="1" fill="none" fill-rule="evenodd">
        <g id="首页" transform="translate(-60.000000, -225.000000)">
            <g id="接收-按钮" transform="translate(32.000000, 215.000000)">
                <g id="文字&amp;icon" transform="translate(28.000000, 10.000000)">
                    <g id="接收icon">
                        <rect id="矩形" x="0" y="0" width="24" height="24"></rect>
                        <g id="接收" transform="translate(4.000000, 3.000000)" fill="#171717" fill-rule="nonzero">
                            <path d="M10.0924437,18 L1.74638264,18 C0.781752412,18 0,17.2062124 0,16.2267317 L0,1.77326834 C0,0.793787552 0.781752412,0 1.74638264,0 L13.2536174,0 C14.2182476,0 15,0.793787552 15,1.77326834 L15,8.43169709 C13.8645498,8.1317311 12.6607717,8.23580093 11.5916399,8.72350074 C9.13786174,9.83153837 7.7733119,12.3230926 8.31792605,14.9554472 C8.58118971,16.1349053 9.20016077,17.2000907 10.0924437,18 L10.0924437,18 Z M2.1442926,4.66069607 L2.1442926,5.05861013 C2.1442926,5.33817028 2.36736334,5.56467521 2.64268489,5.56467521 L9.8653537,5.56467521 C10.1406752,5.56467521 10.363746,5.33817028 10.363746,5.05861013 L10.363746,4.66069607 C10.363746,4.38113593 10.1406752,4.15463099 9.8653537,4.15463099 L2.64469453,4.15463099 C2.36736334,4.15463099 2.1442926,4.38113593 2.1442926,4.66069607 Z M2.1442926,7.48486566 L2.1442926,7.88277973 C2.1442926,8.16233987 2.29501608,8.3888448 2.48191318,8.3888448 L7.36133441,8.3888448 C7.54823151,8.3888448 7.69895498,8.16233987 7.69895498,7.88277973 L7.69895498,7.48486566 C7.69895498,7.20530552 7.54823151,6.97880059 7.36133441,6.97880059 L2.48191318,6.97880059 C2.29501608,6.97880059 2.1442926,7.20530552 2.1442926,7.48486566 Z" id="形状"></path>
                            <path d="M17.2464567,11.0536113 C16.0195052,9.26045496 13.7865797,8.47594908 11.7767362,9.37252723 C9.76689281,10.2669908 8.65148232,12.2842917 9.09764652,14.4136648 C9.54381071,16.4309656 11.3284675,17.999985 13.449852,17.999985 C14.6431307,18.002092 15.7964231,17.5622612 16.6887515,16.7671824 C18.1387851,15.1981707 18.4755128,12.844653 17.2464567,11.0536113 Z M16.099478,13.4790243 L13.8476116,15.7331572 C13.7760569,15.8050526 13.5656021,15.8050526 13.496152,15.7331572 L11.1748355,13.4071289 C11.1032808,13.3373481 11.1032808,13.125891 11.1748355,13.0539955 C11.2463901,12.9842147 11.3158402,12.9842147 11.3852903,12.9842147 L12.5827782,12.9842147 L12.5827782,11.7471906 C12.5827782,11.6055143 12.6543328,11.5357335 12.793233,11.5357335 L14.4810805,11.5357335 C14.5526352,11.5357335 14.6915353,11.6055143 14.6915353,11.7471906 L14.6915353,13.0561101 L15.9584733,13.0561101 C16.099478,13.0561101 16.1689281,13.1977864 16.1689281,13.3373481 C16.164719,13.3923269 16.1394644,13.4430766 16.099478,13.4790243 L16.099478,13.4790243 Z" id="形状"></path>
                        </g>
                    </g>
                </g>
            </g>
        </g>
    </g>
</svg>