<?xml version="1.0" encoding="UTF-8"?>
<svg width="24px" height="24px" viewBox="0 0 24 24" version="1.1" xmlns="http://www.w3.org/2000/svg" xmlns:xlink="http://www.w3.org/1999/xlink">
    <!-- Generator: Sketch 58 (84663) - https://sketch.com -->
    <title>close</title>
    <desc>Created with Sketch.</desc>
    <g id="🥑-风格确定" stroke="none" stroke-width="1" fill="none" fill-rule="evenodd">
        <g id="移除钱包-弹窗" transform="translate(-340.000000, -244.000000)">
            <g id="弹窗" transform="translate(32.000000, 232.000000)">
                <g id="关闭" transform="translate(308.000000, 12.000000)">
                    <rect id="矩形" x="0" y="0" width="24" height="24"></rect>
                    <path d="M12.281653,5.19701845 L12.3243178,5.23859995 L17.5953513,10.8339856 L22.6724542,5.44486058 C22.9670581,5.12911079 23.4445558,5.11846829 23.7513868,5.42081328 C24.0582177,5.72315826 24.0836655,6.22939298 23.8088875,6.56467876 L23.7701013,6.60996553 L18.6922227,11.9982672 L23.7697135,17.3873922 C24.0674949,17.6999524 24.0777918,18.206971 23.7929765,18.5328619 C23.5081612,18.8587528 23.0310697,18.8858492 22.7151189,18.5940787 L22.6724542,18.5520855 L17.5953513,13.1629605 L12.3243178,18.7587578 C12.0293567,19.0719262 11.553871,19.081381 11.2480667,18.7801585 C10.9422625,18.4789361 10.9156741,17.9749295 11.1878845,17.6393513 L11.2270585,17.5940646 L16.4984798,11.9982672 L11.2274463,6.40329321 C10.9345471,6.08989027 10.9266096,5.58706618 11.2094527,5.26342333 C11.4922958,4.93978049 11.9652692,4.9104877 12.281653,5.19701845 L12.281653,5.19701845 Z" id="路径" fill="#7F7F7F" fill-rule="nonzero"></path>
                </g>
            </g>
        </g>
    </g>
</svg>