<?xml version="1.0" encoding="UTF-8"?>
<svg width="24px" height="24px" viewBox="0 0 24 24" version="1.1" xmlns="http://www.w3.org/2000/svg" xmlns:xlink="http://www.w3.org/1999/xlink">
    <!-- Generator: Sketch 58 (84663) - https://sketch.com -->
    <title>delete</title>
    <desc>Created with Sketch.</desc>
    <g id="ðŸ¥‘-é£Žæ ¼ç¡®å®š" stroke="none" stroke-width="1" fill="none" fill-rule="evenodd">
        <g id="é’±åŒ…åˆ—è¡¨é¡µ-è®¾ç½®" transform="translate(-183.000000, -282.000000)">
            <g id="åˆ é™¤" transform="translate(183.000000, 282.000000)">
                <g id="åˆ é™¤/icon">
                    <rect id="çŸ©å½¢" x="0" y="0" width="24" height="24"></rect>
                    <g id="åžƒåœ¾ç®±æ¡¶ã€åˆ é™¤2" transform="translate(3.500000, 3.000000)" fill="#D8D8D8" fill-rule="nonzero">
                        <path d="M10.8108,0 C12.303579,0 13.5135,1.06977915 13.5135,2.38969912 L13.5135,3.18590044 L17.1171,3.18590044 C17.5952744,3.1851444 17.9905221,3.51655759 18.0167659,3.94026559 L18.018,3.98253982 C18.0175422,4.1941704 17.9223689,4.39697171 17.7534173,4.54632959 C17.5844657,4.69568746 17.3555754,4.77936721 17.1171,4.77896017 L16.2162,4.77896017 L16.2162,15.1335199 C16.2162,16.4324123 15.0442895,17.4890492 13.5843379,17.5221238 L13.5135,17.523 L4.5045,17.523 C3.01172104,17.523 1.8018,16.4532208 1.8018,15.1333009 L1.8018,4.77917921 L0.9009,4.77917921 C0.42281588,4.77994152 0.0276041016,4.44865473 0.00123410959,4.0250331 L0,3.98253982 C0.000392397769,3.77087126 0.0955368166,3.56801369 0.264495532,3.41860846 C0.433454248,3.26920324 0.66238187,3.18549343 0.9009,3.18590044 L4.5045,3.18590044 L4.5045,2.38948009 C4.5045,1.09080675 5.67641047,0.0339508125 7.13636211,0.00087615 L7.2072,0 L10.8108,0 L10.8108,0 Z M14.454,4.752 L3.564,4.752 L3.564,15.1400057 C3.564,15.5669702 3.94440411,15.9157055 4.42326575,15.9378998 L4.4715,15.939 L13.5465,15.939 C13.7867225,15.9394069 14.0172896,15.8554568 14.187479,15.7056165 C14.3576684,15.5557762 14.4535389,15.3523198 14.454,15.1400057 L14.454,4.752 L14.454,4.752 Z M7.227,7.22721927 C7.46285483,7.22681453 7.68922982,7.31002122 7.85632483,7.45853473 C8.02341984,7.60704824 8.11754724,7.80870306 8.118,8.01913723 L8.118,12.7710806 C8.11754724,12.9815147 8.02341984,13.1831696 7.85632483,13.3316831 C7.68922982,13.4801966 7.46285483,13.5634033 7.227,13.563 C6.99114517,13.5634033 6.76477018,13.4801966 6.59767517,13.3316831 C6.43058016,13.1831696 6.33645276,12.9815147 6.336,12.7710806 L6.336,8.01913723 C6.33638809,7.80866529 6.43048696,7.60695452 6.59758899,7.45839393 C6.76469101,7.30983333 6.99110295,7.22659676 7.227,7.227 L7.227,7.22721927 Z M10.89,7.22721927 C11.1258548,7.22681453 11.3522298,7.31002122 11.5193248,7.45853473 C11.6864198,7.60704824 11.7805472,7.80870306 11.781,8.01913723 L11.781,12.7710806 C11.7805472,12.9815147 11.6864198,13.1831696 11.5193248,13.3316831 C11.3522298,13.4801966 11.1258548,13.5634033 10.89,13.563 C10.6541452,13.5634033 10.4277702,13.4801966 10.2606752,13.3316831 C10.0935802,13.1831696 9.99945276,12.9815147 9.999,12.7710806 L9.999,8.01913723 C9.99938809,7.80866529 10.093487,7.60695452 10.260589,7.45839393 C10.427691,7.30983333 10.6541029,7.22659676 10.89,7.227 L10.89,7.22721927 Z M10.8735,1.584 L7.2435,1.584 C7.00327749,1.58359669 6.77271037,1.66681192 6.60252101,1.81534068 C6.43233165,1.96386944 6.33646114,2.16554496 6.336,2.37600073 L6.336,3.168 L11.781,3.168 L11.781,2.37600073 C11.781,1.9527734 11.4005959,1.60709056 10.9217342,1.58509058 L10.8735,1.584 L10.8735,1.584 Z" id="å½¢çŠ¶"></path>
                    </g>
                </g>
            </g>
        </g>
    </g>
</svg>