<?xml version="1.0" encoding="UTF-8"?>
<svg width="24px" height="24px" viewBox="0 0 24 24" version="1.1" xmlns="http://www.w3.org/2000/svg" xmlns:xlink="http://www.w3.org/1999/xlink">
    <!-- Generator: Sketch 58 (84663) - https://sketch.com -->
    <title>edit</title>
    <desc>Created with Sketch.</desc>
    <g id="🥑-风格确定" stroke="none" stroke-width="1" fill="none" fill-rule="evenodd">
        <g id="钱包列表页-设置" transform="translate(-183.000000, -170.000000)">
            <g id="编辑" transform="translate(183.000000, 170.000000)">
                <g id="编辑/icon">
                    <rect id="矩形" x="0" y="0" width="24" height="24"></rect>
                    <path d="M20.314811,6.37265102 L11.4687524,15.2186995 L8.28124756,15.2186995 L8.28124756,12.0311983 L17.1273062,3.18514981 C17.2517845,3.06073007 17.414718,3 17.5778658,3 C17.7412861,3 17.9044728,3.06073007 18.0289511,3.18514981 L20.314811,5.4710071 C20.4392893,5.59552419 20.5,5.75841864 20.5,5.92181932 C20.5,6.08471377 20.4392893,6.24817288 20.314811,6.37265102 Z M17.5781384,4.85932542 L9.87500975,12.5624452 L9.87500975,13.6249976 L10.9375049,13.6249976 L18.6406335,5.92181934 L17.5781384,4.85932542 Z M11.7343762,5.65625426 L5.0937427,5.65625426 L5.0937427,18.4062007 L17.8437622,18.4062007 L17.8437622,11.7655748 C17.8437622,11.3256469 18.200452,10.9687433 18.6406335,10.9687433 C19.0808346,10.9687433 19.4375049,11.3256274 19.4375049,11.7655748 L19.4375049,18.9374477 C19.4375049,19.5242649 18.9617692,20 18.3750097,20 L4.56249514,20 C3.97573567,20 3.5,19.5242649 3.5,18.9374476 L3.5,5.12494889 C3.5,4.5381901 3.97573565,4.06245497 4.56249514,4.06245497 L11.7343762,4.06245497 C12.1745773,4.06245497 12.5312476,4.41939747 12.5312476,4.8593254 C12.5312476,5.29925333 12.1745772,5.65625426 11.7343762,5.65625426 Z" id="形状" fill="#D8D8D8" fill-rule="nonzero"></path>
                </g>
            </g>
        </g>
    </g>
</svg>