<?xml version="1.0" encoding="UTF-8"?>
<svg width="24px" height="24px" viewBox="0 0 24 24" version="1.1" xmlns="http://www.w3.org/2000/svg" xmlns:xlink="http://www.w3.org/1999/xlink">
    <!-- Generator: Sketch 58 (84663) - https://sketch.com -->
    <title>search</title>
    <desc>Created with Sketch.</desc>
    <g id="ðŸ¥‘-é£Žæ ¼ç¡®å®š" stroke="none" stroke-width="1" fill="none" fill-rule="evenodd">
        <g id="é¦–é¡µ" transform="translate(-40.000000, -342.000000)">
            <g id="æœç´¢" transform="translate(32.000000, 335.000000)">
                <g id="æœç´¢icon" transform="translate(8.000000, 7.000000)">
                    <rect id="çŸ©å½¢" x="0" y="0" width="24" height="24"></rect>
                    <g id="æœç´¢" transform="translate(5.000000, 5.000000)" fill="#D8D8D8" fill-rule="nonzero">
                        <path d="M3.57142857,7 C3.21428572,7 3,6.73770492 3,6.47540983 C3,4.57377048 4.57142856,3 6.42857143,3 C6.78571428,3 7,3.26229508 7,3.52459017 C7,3.85245902 6.71428572,4.04918033 6.42857143,4.04918033 C5.21428572,4.04918033 4.21428572,5.09836066 4.21428572,6.40983607 C4.21428572,6.73770492 3.92857144,7 3.57142857,7 Z" id="è·¯å¾„"></path>
                        <path d="M13.8120108,12.8224299 L11.205971,10.2056075 C12.052934,9.15887849 12.5741419,7.78504672 12.5741419,6.28037384 C12.5741419,2.81308412 9.77264918,0 6.31964646,0 C2.86664374,0 0,2.81308411 0,6.28037384 C0,9.74766356 2.80149276,12.5607477 6.25449548,12.5607477 C7.68781735,12.5607477 9.05598823,12.0373832 10.0984041,11.1869159 L12.7044439,13.8037383 C12.8347459,13.9345794 13.0301989,14 13.2256519,14 C13.4211049,14 13.6165579,13.9345794 13.7468598,13.8037383 C14.0726148,13.6074766 14.0726148,13.0841121 13.8120108,12.8224299 Z M1.49847287,6.28037384 C1.49847287,3.59813085 3.64845569,1.43925233 6.31964646,1.43925233 C8.99083723,1.43925233 11.1408201,3.59813083 11.1408201,6.28037384 C11.1408201,8.96261684 8.99083725,11.1214953 6.31964646,11.1214953 C3.64845567,11.1214953 1.49847287,8.96261682 1.49847287,6.28037384 Z" id="å½¢çŠ¶"></path>
                    </g>
                </g>
            </g>
        </g>
    </g>
</svg>