<?xml version="1.0" encoding="UTF-8"?>
<svg width="24px" height="24px" viewBox="0 0 24 24" version="1.1" xmlns="http://www.w3.org/2000/svg" xmlns:xlink="http://www.w3.org/1999/xlink">
    <!-- Generator: Sketch 58 (84663) - https://sketch.com -->
    <title>refresh</title>
    <desc>Created with Sketch.</desc>
    <g id="ðŸ¥‘-é£Žæ ¼ç¡®å®š" stroke="none" stroke-width="1" fill="none" fill-rule="evenodd">
        <g id="åˆ›å»ºåŠ©è®°è¯" transform="translate(-313.000000, -322.000000)">
            <g id="æ“ä½œæ " transform="translate(32.000000, 310.000000)">
                <g id="åˆ·æ–°" transform="translate(180.000000, 0.000000)">
                    <g transform="translate(45.000000, 11.000000)" id="icon">
                        <g transform="translate(56.000000, 1.000000)">
                            <rect id="çŸ©å½¢" x="0" y="0" width="24" height="24"></rect>
                            <path d="M9.52459639,15.73515 C8.66219158,16.3579969 7.60559076,16.6431713 6.5509978,16.5377181 C6.50174758,16.5330193 6.4534266,16.5245613 6.40324712,16.5179829 C6.30846367,16.504826 6.21368021,16.4926089 6.12168451,16.4738134 C6.06496794,16.4622035 6.00857278,16.4490418 5.95256109,16.4343428 C5.86222382,16.4141667 5.77264627,16.3906566 5.68400796,16.3638597 C5.64219173,16.3507028 5.6003755,16.3356664 5.55763002,16.32063 C5.43320237,16.2786625 5.31072484,16.2309981 5.19057645,16.1777842 C5.07510641,16.1268268 4.96193577,16.070698 4.85140036,16.0095644 L4.83653237,16.0020462 C4.34116497,15.722944 3.90206501,15.3521919 3.54208773,14.9090874 C3.52443199,14.8874726 3.5077055,14.8630384 3.49004975,14.8404838 C2.85680851,14.0321079 2.51260332,13.0308532 2.51340847,11.9995428 L3.54673398,11.9995428 C3.57445628,11.9995675 3.59988914,11.98399 3.6127107,11.9591325 C3.62602011,11.9348104 3.62458066,11.9049674 3.6089937,11.8820709 L1.87408477,9.21498835 C1.86044028,9.19329624 1.83678164,9.18015925 1.81136042,9.18015925 C1.78593921,9.18015925 1.76228057,9.19329624 1.74863608,9.21498835 L0.0127979019,11.8820709 C-0.00207009105,11.9036857 -0.00485783973,11.9337585 0.00908090366,11.9591325 C0.0230196471,11.9845064 0.0481093852,11.9995428 0.0750576224,11.9995428 L1.10838313,11.9995428 C1.10838313,13.2626009 1.49309245,14.4326213 2.14542564,15.3996501 C2.15378889,15.4137468 2.15936438,15.4278434 2.16772763,15.4410003 C2.23556285,15.5396767 2.31083206,15.6317747 2.38331353,15.7257522 C2.41026177,15.7605239 2.43628075,15.7971751 2.46415824,15.8319468 C2.57102194,15.9653949 2.68439039,16.0885055 2.80147583,16.2116161 L2.83399956,16.245448 C3.3451503,16.7704558 3.94987948,17.1929492 4.61630022,17.4906504 L4.72409317,17.5395187 C4.84768336,17.5921461 4.9759198,17.6381951 5.10322699,17.6823646 C5.16362821,17.7030396 5.22310018,17.7246544 5.28443065,17.74345 C5.39686985,17.7772819 5.51116755,17.8054751 5.62639449,17.8336684 C5.7035222,17.8524639 5.77879142,17.8721992 5.85777763,17.8872356 C5.88937212,17.8947538 5.92003735,17.9041515 5.95256109,17.9088504 C6.06128328,17.9285857 6.17000548,17.939863 6.27965693,17.9530199 L6.39674238,17.9699358 C7.79220933,18.1137707 9.19166683,17.7382259 10.3330435,16.9136283 C10.6511534,16.68324 10.7280477,16.237553 10.5058839,15.9118277 C10.4001316,15.755247 10.2365264,15.6482888 10.0519324,15.6150532 C9.86733841,15.5818176 9.67728525,15.6251008 9.52459639,15.73515 M12.8317956,11.9995428 C12.8327463,10.7894291 12.4729619,9.60713037 11.7993993,8.60695368 C11.7891776,8.59003772 11.7826728,8.57312176 11.7733803,8.55902513 C11.6916887,8.44335755 11.6061488,8.33051989 11.5169074,8.22070599 L11.4862422,8.18029565 C10.9008853,7.45019218 10.1506933,6.87295637 9.29878875,6.49715794 C9.27538104,6.48658047 9.25214666,6.47561495 9.22909503,6.4642658 C9.09344437,6.40841519 8.9561631,6.35670416 8.81743748,6.30920286 C8.76447025,6.29228691 8.71522003,6.2734914 8.66318205,6.25845499 C8.54167532,6.22158331 8.4189406,6.18898484 8.29519923,6.16071835 C8.22736401,6.14474217 8.15859954,6.12688644 8.08890582,6.11278981 C8.05452359,6.10621138 8.0229291,6.09587385 7.98854687,6.08929542 C7.89562192,6.07237947 7.80269696,6.06580104 7.709772,6.05358396 C7.64658303,6.04512598 7.58246481,6.03478845 7.51834659,6.02821002 C7.36382988,6.01431203 7.20883868,6.00647469 7.05372181,6.00471564 C7.02584433,6.00471564 6.99796684,6.00000835 6.9691601,6.00000835 C5.76419852,5.99794757 4.5888423,6.37752002 3.60806445,7.08545733 C3.28906661,7.31561033 3.21170072,7.76205133 3.43429478,8.08819766 C3.54035707,8.24441773 3.70401239,8.35101522 3.88851921,8.3840584 C4.07302603,8.41710158 4.26292484,8.37382182 4.41558231,8.26393566 C5.27985458,7.64131435 6.33780675,7.35622068 7.39382715,7.46136748 L7.51184185,7.47828344 C7.61870555,7.49050052 7.72371075,7.5064767 7.82685745,7.52715176 C7.87239068,7.53560974 7.9179239,7.54782682 7.96252788,7.55816435 C8.06381609,7.58165873 8.16603354,7.60703267 8.26453399,7.63710548 L8.35745895,7.66999762 C8.47082739,7.70758863 8.58140809,7.74799897 8.69105954,7.79498774 L8.72544177,7.81096393 C9.38056271,8.09947497 9.95576819,8.54398872 10.4045957,9.10033575 L10.412959,9.11161306 C11.0692104,9.92795483 11.4266641,10.9483949 11.4249117,12.0004826 L10.3925155,12.0004826 C10.364831,12.0001818 10.3392749,12.0154648 10.3261955,12.040143 C10.3131162,12.0648212 10.3146808,12.0948056 10.3302558,12.1179545 L12.0670232,14.7840973 C12.0807479,14.8053707 12.1041662,14.818197 12.1292829,14.818197 C12.1543996,14.818197 12.1778179,14.8053707 12.1915426,14.7840973 L13.9264516,12.1179545 C13.9617367,12.1175712 13.9918935,12.0921542 13.998627,12.057123 C14.0053605,12.0220919 13.9868151,11.9871004 13.9542416,11.9733764 C13.921668,11.9596525 13.8840429,11.9709782 13.8641918,12.0004826 L12.8317956,12.0004826 L12.8317956,11.9995428 L12.8317956,11.9995428 Z" id="å½¢çŠ¶" fill="#D8D8D8" fill-rule="nonzero"></path>
                        </g>
                    </g>
                </g>
            </g>
        </g>
    </g>
</svg>