<?xml version="1.0" encoding="UTF-8"?>
<svg width="351px" height="42px" viewBox="0 0 351 42" version="1.1" xmlns="http://www.w3.org/2000/svg" xmlns:xlink="http://www.w3.org/1999/xlink">
    <!-- Generator: Sketch 58 (84663) - https://sketch.com -->
    <title>round-line</title>
    <desc>Created with Sketch.</desc>
    <g id="ðŸ¥‘-é£Žæ ¼ç¡®å®š" stroke="none" stroke-width="1" fill="none" fill-rule="evenodd">
        <g id="ç­¾ç½²äº¤æ˜“é¡µé¢" transform="translate(-32.000000, -170.000000)" fill="#333333">
            <g id="å¡ç‰‡" transform="translate(32.000000, 86.000000)">
                <path d="M343.998733,0 C347.313141,0 350,2.67937848 350,5.99706967 L350,84 C338.519172,84 329.190164,93.2130397 329.00287,104.649226 L329,105 C329,116.59798 338.40202,126 350,126 C350.000334,126 350.000668,126 350.001001,126 L350,254.00293 C350,257.31502 347.309348,260 343.998733,260 L6.00126655,260 C2.68685855,260 -1.86247684e-11,257.320622 -1.86247684e-11,254.00293 L-2.04437578e-11,126 C11.5979797,126 21,116.59798 21,105 C21,93.4020203 11.5979797,84 -2.04437578e-11,84 L-2.04437578e-11,84 L-1.86247684e-11,5.99706967 C-1.86247684e-11,2.68497955 2.69065153,0 6.00126655,0 L343.998733,0 Z M42,102 L28,102 C27.4477153,102 27,102.447715 27,103 L27,103 L27,107 C27,107.552285 27.4477153,108 28,108 L28,108 L42,108 C42.5522847,108 43,107.552285 43,107 L43,107 L43,103 C43,102.447715 42.5522847,102 42,102 L42,102 Z M70,102 L56,102 C55.4477153,102 55,102.447715 55,103 L55,103 L55,107 C55,107.552285 55.4477153,108 56,108 L56,108 L70,108 C70.5522847,108 71,107.552285 71,107 L71,107 L71,103 C71,102.447715 70.5522847,102 70,102 L70,102 Z M98,102 L84,102 C83.4477153,102 83,102.447715 83,103 L83,103 L83,107 C83,107.552285 83.4477153,108 84,108 L84,108 L98,108 C98.5522847,108 99,107.552285 99,107 L99,107 L99,103 C99,102.447715 98.5522847,102 98,102 L98,102 Z M126,102 L112,102 C111.447715,102 111,102.447715 111,103 L111,103 L111,107 C111,107.552285 111.447715,108 112,108 L112,108 L126,108 C126.552285,108 127,107.552285 127,107 L127,107 L127,103 C127,102.447715 126.552285,102 126,102 L126,102 Z M154,102 L140,102 C139.447715,102 139,102.447715 139,103 L139,103 L139,107 C139,107.552285 139.447715,108 140,108 L140,108 L154,108 C154.552285,108 155,107.552285 155,107 L155,107 L155,103 C155,102.447715 154.552285,102 154,102 L154,102 Z M182,102 L168,102 C167.447715,102 167,102.447715 167,103 L167,103 L167,107 C167,107.552285 167.447715,108 168,108 L168,108 L182,108 C182.552285,108 183,107.552285 183,107 L183,107 L183,103 C183,102.447715 182.552285,102 182,102 L182,102 Z M210,102 L196,102 C195.447715,102 195,102.447715 195,103 L195,103 L195,107 C195,107.552285 195.447715,108 196,108 L196,108 L210,108 C210.552285,108 211,107.552285 211,107 L211,107 L211,103 C211,102.447715 210.552285,102 210,102 L210,102 Z M238,102 L224,102 C223.447715,102 223,102.447715 223,103 L223,103 L223,107 C223,107.552285 223.447715,108 224,108 L224,108 L238,108 C238.552285,108 239,107.552285 239,107 L239,107 L239,103 C239,102.447715 238.552285,102 238,102 L238,102 Z M266,102 L252,102 C251.447715,102 251,102.447715 251,103 L251,103 L251,107 C251,107.552285 251.447715,108 252,108 L252,108 L266,108 C266.552285,108 267,107.552285 267,107 L267,107 L267,103 C267,102.447715 266.552285,102 266,102 L266,102 Z M294,102 L280,102 C279.447715,102 279,102.447715 279,103 L279,103 L279,107 C279,107.552285 279.447715,108 280,108 L280,108 L294,108 C294.552285,108 295,107.552285 295,107 L295,107 L295,103 C295,102.447715 294.552285,102 294,102 L294,102 Z M322,102 L308,102 C307.447715,102 307,102.447715 307,103 L307,103 L307,107 C307,107.552285 307.447715,108 308,108 L308,108 L322,108 C322.552285,108 323,107.552285 323,107 L323,107 L323,103 C323,102.447715 322.552285,102 322,102 L322,102 Z" id="å½¢çŠ¶ç»“åˆ"></path>
            </g>
        </g>
    </g>
</svg>